<?xml version="1.0" encoding="UTF-8"?>
<svg version="1.1" xmlns="http://www.w3.org/2000/svg" width="225" height="225">
<path d="M0 0 C74.25 0 148.5 0 225 0 C225 74.25 225 148.5 225 225 C150.75 225 76.5 225 0 225 C0 150.75 0 76.5 0 0 Z " fill="#001D2B" transform="translate(0,0)"/>
<path d="M0 0 C5.67857554 5.47720761 10.30868067 11.6793071 15 18 C16.17175781 19.57201172 16.17175781 19.57201172 17.3671875 21.17578125 C31.06825008 40.21030245 39.71612562 61.33036389 36.73193359 85.13867188 C33.51793305 104.06808951 22.60010268 122.55673067 8 135 C7.34 135.33 6.68 135.66 6 136 C5.5477526 138.64254362 5.20369503 141.21304966 4.9375 143.875 C4.10806452 151.67580645 4.10806452 151.67580645 3 155 C1.35 155 -0.3 155 -2 155 C-2.12117188 154.14277344 -2.24234375 153.28554687 -2.3671875 152.40234375 C-2.87632319 148.92847177 -3.43136964 145.46458356 -4 142 C-4.20625 140.72125 -4.4125 139.4425 -4.625 138.125 C-6.33029837 134.24932188 -8.5532244 132.56194508 -11.7890625 129.921875 C-22.82487101 120.32891071 -30.22852699 105.92831123 -34 92 C-34.35707031 90.75476563 -34.71414062 89.50953125 -35.08203125 88.2265625 C-36.18862906 83.72249659 -36.34539886 79.37276048 -36.3125 74.75 C-36.30686035 73.9137207 -36.3012207 73.07744141 -36.29541016 72.21582031 C-36.16340873 65.44845988 -35.2478331 59.41143305 -33 53 C-32.5978125 51.83339844 -32.195625 50.66679688 -31.78125 49.46484375 C-27.08319161 36.5456046 -20.20539835 25.16503 -11.28515625 14.71875 C-7.30333716 9.98140627 -3.67453492 4.97756148 0 0 Z " fill="#00EA63" transform="translate(112,35)"/>
<path d="M0 0 C0.33 0 0.66 0 1 0 C2.21057681 18.37891719 3.20565169 36.76974366 3.78274536 55.18023682 C3.84422987 57.05951081 3.91280982 58.93856611 3.98849487 60.81732178 C4.09297159 63.46135253 4.17105663 66.10488976 4.2421875 68.75 C4.27835678 69.54221954 4.31452606 70.33443909 4.35179138 71.15066528 C4.39404297 73.359375 4.39404297 73.359375 4 77 C1.98486328 79.015625 1.98486328 79.015625 0 80 C-1.48461914 78.94580078 -1.48461914 78.94580078 -3 77 C-3.32592773 73.80029297 -3.32592773 73.80029297 -3.24609375 69.8671875 C-3.23420517 69.15956268 -3.22231659 68.45193787 -3.21006775 67.72286987 C-3.06017878 60.57867057 -2.65753346 53.44538661 -2.2020874 46.31509399 C-1.96082497 42.52974232 -1.73596305 38.74342386 -1.51171875 34.95703125 C-1.4668634 34.20244125 -1.42200806 33.44785126 -1.37579346 32.6703949 C-0.73998418 21.78799784 -0.3572981 10.89468723 0 0 Z " fill="#00282E" transform="translate(112,90)"/>
<path d="M0 0 C0.33 0 0.66 0 1 0 C1.59668548 11.55760726 2.10543598 23.11339534 2.1875 34.6875 C2.20683594 36.0036731 2.20683594 36.0036731 2.2265625 37.34643555 C2.22785156 38.164104 2.22914062 38.98177246 2.23046875 39.82421875 C2.23457764 40.53666748 2.23868652 41.24911621 2.24291992 41.9831543 C1.96027422 44.32982376 1.15843772 45.95601886 0 48 C-0.33 48 -0.66 48 -1 48 C-1.14453125 31.97308977 -0.7213011 16.01058231 0 0 Z " fill="#00172A" transform="translate(112,90)"/>
<path d="M0 0 C0.99 0.33 1.98 0.66 3 1 C3.05423638 2.91635217 3.09289963 4.83314925 3.125 6.75 C3.14820312 7.81734375 3.17140625 8.8846875 3.1953125 9.984375 C3.00487687 12.92470106 2.52670104 14.52361878 1 17 C0.67 17 0.34 17 0 17 C0 11.39 0 5.78 0 0 Z " fill="#000F29" transform="translate(111,121)"/>
<path d="M0 0 C0.33 0 0.66 0 1 0 C1 2.97 1 5.94 1 9 C0.01 8.67 -0.98 8.34 -2 8 C-1.125 1.125 -1.125 1.125 0 0 Z " fill="#00272E" transform="translate(113,113)"/>
</svg>
