<?xml version="1.0" encoding="UTF-8"?>
<svg version="1.1" xmlns="http://www.w3.org/2000/svg" width="225" height="225">
<path d="M0 0 C74.25 0 148.5 0 225 0 C225 74.25 225 148.5 225 225 C150.75 225 76.5 225 0 225 C0 150.75 0 76.5 0 0 Z " fill="#000000" transform="translate(0,0)"/>
<path d="M0 0 C2.08764928 1.19130315 2.08764928 1.19130315 4.6171875 2.1328125 C7.04296875 3.11328125 7.04296875 3.11328125 10.04296875 5.11328125 C10.04296875 5.77328125 10.04296875 6.43328125 10.04296875 7.11328125 C10.62304688 7.21382812 11.203125 7.314375 11.80078125 7.41796875 C17.9605309 9.32813502 22.74557754 15.69658322 26.72265625 20.54296875 C28.15352778 22.29760955 28.15352778 22.29760955 30.41796875 24.42578125 C32.04296875 26.11328125 32.04296875 26.11328125 32.04296875 28.11328125 C32.70296875 28.11328125 33.36296875 28.11328125 34.04296875 28.11328125 C38.31135199 35.56461694 42.08600847 43.04344986 45.04296875 51.11328125 C45.43871094 52.18578125 45.83445313 53.25828125 46.2421875 54.36328125 C51.29689392 70.2545688 50.58636849 88.17997616 46.04296875 104.11328125 C45.81480469 105.10457031 45.58664063 106.09585938 45.3515625 107.1171875 C43.88031119 113.29644302 41.66004283 117.93092365 38.04296875 123.11328125 C37.11763718 124.54521893 36.20080531 125.98268846 35.29296875 127.42578125 C34.885625 128.06128906 34.47828125 128.69679687 34.05859375 129.3515625 C32.88691316 131.24835984 32.88691316 131.24835984 32.04296875 134.11328125 C30.3965691 135.47156096 28.73001068 136.80582376 27.04296875 138.11328125 C26.71296875 138.77328125 26.38296875 139.43328125 26.04296875 140.11328125 C25.38296875 140.11328125 24.72296875 140.11328125 24.04296875 140.11328125 C23.83671875 140.67015625 23.63046875 141.22703125 23.41796875 141.80078125 C21.46613843 145.08340496 19.10065881 146.82001371 16.04296875 149.11328125 C15.38296875 149.11328125 14.72296875 149.11328125 14.04296875 149.11328125 C14.04296875 149.77328125 14.04296875 150.43328125 14.04296875 151.11328125 C7.96540702 155.84027371 -0.20597887 161.11328125 -7.95703125 161.11328125 C-7.95703125 161.77328125 -7.95703125 162.43328125 -7.95703125 163.11328125 C-23.00905803 171.87775254 -47.50653332 169.71792524 -63.64257812 165.80053711 C-67.50889868 164.75266965 -70.58852291 163.24253903 -73.95703125 161.11328125 C-75.52744127 160.47627719 -77.11142832 159.87175681 -78.70703125 159.30078125 C-83.94662096 157.26621793 -91.32444075 154.37846225 -93.95703125 149.11328125 C-94.94703125 148.78328125 -95.93703125 148.45328125 -96.95703125 148.11328125 C-96.95703125 147.45328125 -96.95703125 146.79328125 -96.95703125 146.11328125 C-97.54484375 145.86320313 -98.13265625 145.613125 -98.73828125 145.35546875 C-101.25044227 143.9490124 -102.62348477 142.44687133 -104.45703125 140.23828125 C-106.20823063 138.14480199 -107.90392859 136.16275843 -109.90234375 134.30078125 C-125.70736454 117.47414315 -128.63466859 92.86989793 -128.08886719 71.02099609 C-127.45089563 56.95017894 -122.56730024 43.5077326 -114.3515625 32.078125 C-112.88873452 30.08259792 -112.88873452 30.08259792 -111.56640625 27.69921875 C-109.75217695 24.78412215 -107.68946059 22.35280317 -105.39453125 19.80078125 C-104.21697266 18.47626953 -104.21697266 18.47626953 -103.015625 17.125 C-100.95703125 15.11328125 -100.95703125 15.11328125 -98.95703125 15.11328125 C-98.62703125 14.12328125 -98.29703125 13.13328125 -97.95703125 12.11328125 C-95.7421875 10.2890625 -95.7421875 10.2890625 -93.01953125 8.42578125 C-92.12363281 7.80316406 -91.22773437 7.18054688 -90.3046875 6.5390625 C-87.95703125 5.11328125 -87.95703125 5.11328125 -85.95703125 5.11328125 C-85.95703125 4.45328125 -85.95703125 3.79328125 -85.95703125 3.11328125 C-84.63703125 3.11328125 -83.31703125 3.11328125 -81.95703125 3.11328125 C-81.95703125 2.45328125 -81.95703125 1.79328125 -81.95703125 1.11328125 C-80.66693482 0.60924357 -79.37489336 0.11018199 -78.08203125 -0.38671875 C-77.36273438 -0.66515625 -76.6434375 -0.94359375 -75.90234375 -1.23046875 C-73.95703125 -1.88671875 -73.95703125 -1.88671875 -71.95703125 -1.88671875 C-71.95703125 -2.54671875 -71.95703125 -3.20671875 -71.95703125 -3.88671875 C-48.48403064 -11.892127 -22.09990496 -12.35823465 0 0 Z " fill="#010101" transform="translate(151.95703125,32.88671875)"/>
<path d="M0 0 C5.28 0 10.56 0 16 0 C19.40682157 3.62520757 21.57227081 6.15618836 23.96240234 10.28564453 C25.64826888 13.07109272 27.67358394 15.57100305 29.6875 18.125 C30.52585501 19.21007661 31.36305092 20.29604954 32.19921875 21.3828125 C36.06154746 26.3765021 39.94138579 31.3566024 43.8203125 36.33740234 C47.29155687 40.79651446 50.74895497 45.26563663 54.1875 49.75 C57.5786909 54.16630579 60.99646938 58.56004387 64.4375 62.9375 C64.88810791 63.51266357 65.33871582 64.08782715 65.80297852 64.68041992 C68.2111336 67.74896539 70.64172443 70.79617205 73.10546875 73.8203125 C73.61086182 74.44687744 74.11625488 75.07344238 74.63696289 75.71899414 C75.60393495 76.91696067 76.57802551 78.10922835 77.56030273 79.29467773 C80.09543622 82.4513097 81.7550724 84.90106455 82 89 C81.67 89.66 81.34 90.32 81 91 C78.93359375 91.6328125 78.93359375 91.6328125 76.4375 92.125 C75.61121094 92.29257813 74.78492188 92.46015625 73.93359375 92.6328125 C73.29550781 92.75398438 72.65742188 92.87515625 72 93 C64.26039708 83.58833884 56.69868294 74.07035448 49.328125 64.3671875 C45.85757364 59.80099835 42.33875376 55.27324011 38.8125 50.75 C34.76094081 45.54925918 30.71080602 40.3476459 26.6875 35.125 C25.64142578 33.76761719 25.64142578 33.76761719 24.57421875 32.3828125 C20.68829994 27.27627883 16.85016083 22.13354777 13 17 C12.67 34.82 12.34 52.64 12 71 C8.04 71 4.08 71 0 71 C0 47.57 0 24.14 0 0 Z " fill="#F8F8F8" transform="translate(77,77)"/>
<path d="M0 0 C2.08764928 1.19130315 2.08764928 1.19130315 4.6171875 2.1328125 C7.04296875 3.11328125 7.04296875 3.11328125 10.04296875 5.11328125 C10.04296875 5.77328125 10.04296875 6.43328125 10.04296875 7.11328125 C10.62304688 7.21382812 11.203125 7.314375 11.80078125 7.41796875 C17.9605309 9.32813502 22.74557754 15.69658322 26.72265625 20.54296875 C28.15352778 22.29760955 28.15352778 22.29760955 30.41796875 24.42578125 C32.04296875 26.11328125 32.04296875 26.11328125 32.04296875 28.11328125 C32.70296875 28.11328125 33.36296875 28.11328125 34.04296875 28.11328125 C38.31135199 35.56461694 42.08600847 43.04344986 45.04296875 51.11328125 C45.43871094 52.18578125 45.83445313 53.25828125 46.2421875 54.36328125 C51.29689392 70.2545688 50.58636849 88.17997616 46.04296875 104.11328125 C45.81480469 105.10457031 45.58664063 106.09585938 45.3515625 107.1171875 C43.88031119 113.29644302 41.66004283 117.93092365 38.04296875 123.11328125 C37.11763718 124.54521893 36.20080531 125.98268846 35.29296875 127.42578125 C34.885625 128.06128906 34.47828125 128.69679687 34.05859375 129.3515625 C32.88691316 131.24835984 32.88691316 131.24835984 32.04296875 134.11328125 C30.3965691 135.47156096 28.73001068 136.80582376 27.04296875 138.11328125 C26.71296875 138.77328125 26.38296875 139.43328125 26.04296875 140.11328125 C25.38296875 140.11328125 24.72296875 140.11328125 24.04296875 140.11328125 C23.83671875 140.67015625 23.63046875 141.22703125 23.41796875 141.80078125 C21.46613843 145.08340496 19.10065881 146.82001371 16.04296875 149.11328125 C15.38296875 149.11328125 14.72296875 149.11328125 14.04296875 149.11328125 C14.04296875 149.77328125 14.04296875 150.43328125 14.04296875 151.11328125 C7.96540702 155.84027371 -0.20597887 161.11328125 -7.95703125 161.11328125 C-7.95703125 161.77328125 -7.95703125 162.43328125 -7.95703125 163.11328125 C-23.00905803 171.87775254 -47.50653332 169.71792524 -63.64257812 165.80053711 C-67.50889868 164.75266965 -70.58852291 163.24253903 -73.95703125 161.11328125 C-75.52744127 160.47627719 -77.11142832 159.87175681 -78.70703125 159.30078125 C-83.94662096 157.26621793 -91.32444075 154.37846225 -93.95703125 149.11328125 C-94.94703125 148.78328125 -95.93703125 148.45328125 -96.95703125 148.11328125 C-96.95703125 147.45328125 -96.95703125 146.79328125 -96.95703125 146.11328125 C-97.54484375 145.86320313 -98.13265625 145.613125 -98.73828125 145.35546875 C-101.25044227 143.9490124 -102.62348477 142.44687133 -104.45703125 140.23828125 C-106.20823063 138.14480199 -107.90392859 136.16275843 -109.90234375 134.30078125 C-125.70736454 117.47414315 -128.63466859 92.86989793 -128.08886719 71.02099609 C-127.45089563 56.95017894 -122.56730024 43.5077326 -114.3515625 32.078125 C-112.88873452 30.08259792 -112.88873452 30.08259792 -111.56640625 27.69921875 C-109.75217695 24.78412215 -107.68946059 22.35280317 -105.39453125 19.80078125 C-104.21697266 18.47626953 -104.21697266 18.47626953 -103.015625 17.125 C-100.95703125 15.11328125 -100.95703125 15.11328125 -98.95703125 15.11328125 C-98.62703125 14.12328125 -98.29703125 13.13328125 -97.95703125 12.11328125 C-95.7421875 10.2890625 -95.7421875 10.2890625 -93.01953125 8.42578125 C-92.12363281 7.80316406 -91.22773437 7.18054688 -90.3046875 6.5390625 C-87.95703125 5.11328125 -87.95703125 5.11328125 -85.95703125 5.11328125 C-85.95703125 4.45328125 -85.95703125 3.79328125 -85.95703125 3.11328125 C-84.63703125 3.11328125 -83.31703125 3.11328125 -81.95703125 3.11328125 C-81.95703125 2.45328125 -81.95703125 1.79328125 -81.95703125 1.11328125 C-80.66693482 0.60924357 -79.37489336 0.11018199 -78.08203125 -0.38671875 C-77.36273438 -0.66515625 -76.6434375 -0.94359375 -75.90234375 -1.23046875 C-73.95703125 -1.88671875 -73.95703125 -1.88671875 -71.95703125 -1.88671875 C-71.95703125 -2.54671875 -71.95703125 -3.20671875 -71.95703125 -3.88671875 C-48.48403064 -11.892127 -22.09990496 -12.35823465 0 0 Z M-90.95703125 11.11328125 C-91.94703125 11.60828125 -91.94703125 11.60828125 -92.95703125 12.11328125 C-92.95703125 12.77328125 -92.95703125 13.43328125 -92.95703125 14.11328125 C-93.51390625 14.34015625 -94.07078125 14.56703125 -94.64453125 14.80078125 C-97.6155831 16.48705392 -99.6022525 18.64363525 -101.95703125 21.11328125 C-102.88515625 21.97953125 -103.81328125 22.84578125 -104.76953125 23.73828125 C-107.29576913 25.94290416 -107.29576913 25.94290416 -106.95703125 29.11328125 C-107.61703125 29.11328125 -108.27703125 29.11328125 -108.95703125 29.11328125 C-108.95703125 29.77328125 -108.95703125 30.43328125 -108.95703125 31.11328125 C-109.61703125 31.11328125 -110.27703125 31.11328125 -110.95703125 31.11328125 C-122.5225934 52.69467762 -129.24044179 75.62875173 -122.95703125 100.11328125 C-119.27410734 112.02651041 -115.00779704 122.50824614 -106.95703125 132.11328125 C-106.11287508 133.35599795 -105.27828285 134.60531056 -104.45703125 135.86328125 C-101.54754963 139.9404478 -97.82828155 142.97837046 -93.95703125 146.11328125 C-93.38597656 146.60570312 -92.81492188 147.098125 -92.2265625 147.60546875 C-80.32862853 157.32342807 -63.31096925 164.48445102 -47.95703125 165.11328125 C-46.80976562 165.16484375 -45.6625 165.21640625 -44.48046875 165.26953125 C-27.12041373 165.79141116 -6.59528439 162.70579642 7.04296875 151.11328125 C6.06535179 148.18043038 5.24931373 146.31962623 3.04296875 144.11328125 C0.83662377 141.90693627 0.02058571 140.04613212 -0.95703125 137.11328125 C2.50796875 136.12328125 2.50796875 136.12328125 6.04296875 135.11328125 C6.37296875 133.46328125 6.70296875 131.81328125 7.04296875 130.11328125 C7.44515625 131.04140625 7.44515625 131.04140625 7.85546875 131.98828125 C8.99853723 134.41280455 8.99853723 134.41280455 12.04296875 136.11328125 C12.37296875 137.10328125 12.70296875 138.09328125 13.04296875 139.11328125 C13.70296875 139.11328125 14.36296875 139.11328125 15.04296875 139.11328125 C15.37296875 140.43328125 15.70296875 141.75328125 16.04296875 143.11328125 C17.03296875 143.11328125 18.02296875 143.11328125 19.04296875 143.11328125 C19.04296875 142.45328125 19.04296875 141.79328125 19.04296875 141.11328125 C19.70296875 141.11328125 20.36296875 141.11328125 21.04296875 141.11328125 C22.54422966 139.48224533 23.96981261 137.7811048 25.35546875 136.05078125 C26.11472656 135.11105469 26.87398437 134.17132813 27.65625 133.203125 C28.44386719 132.18347656 29.23148438 131.16382813 30.04296875 130.11328125 C30.66800293 129.32062866 30.66800293 129.32062866 31.30566406 128.51196289 C34.80551667 123.89137851 37.05356799 119.05543278 39.16796875 113.67578125 C39.5134375 112.79760742 39.85890625 111.91943359 40.21484375 111.01464844 C47.7954163 91.05777852 48.80674788 68.87161148 40.73046875 48.86328125 C38.02423363 42.85675939 35.06337846 36.9672712 32.04296875 31.11328125 C31.38296875 31.11328125 30.72296875 31.11328125 30.04296875 31.11328125 C29.81609375 30.39140625 29.58921875 29.66953125 29.35546875 28.92578125 C27.76965 25.52759822 25.78173551 23.66097126 23.04296875 21.11328125 C22.19734375 20.22640625 21.35171875 19.33953125 20.48046875 18.42578125 C18.34684151 16.40157079 16.7347381 15.20992802 14.04296875 14.11328125 C14.04296875 13.45328125 14.04296875 12.79328125 14.04296875 12.11328125 C12.72296875 11.78328125 11.40296875 11.45328125 10.04296875 11.11328125 C10.04296875 10.45328125 10.04296875 9.79328125 10.04296875 9.11328125 C9.45128906 8.78714844 8.85960937 8.46101563 8.25 8.125 C7.45980469 7.68800781 6.66960937 7.25101563 5.85546875 6.80078125 C5.07816406 6.37152344 4.30085937 5.94226562 3.5 5.5 C1.8678091 4.57881118 0.2596962 3.61354042 -1.3203125 2.60546875 C-25.83892805 -11.27025145 -70.53501798 -10.27545454 -90.95703125 11.11328125 Z " fill="#2E2E2E" transform="translate(151.95703125,32.88671875)"/>
<path d="M0 0 C3.96 0 7.92 0 12 0 C12 11.55 12 23.1 12 35 C6.555 35.495 6.555 35.495 1 36 C0 35 0 35 -0.11352539 31.67358398 C-0.11336629 30.19774444 -0.10767314 28.72189931 -0.09765625 27.24609375 C-0.09553383 26.08292381 -0.09553383 26.08292381 -0.09336853 24.89625549 C-0.08775345 22.40996506 -0.07519846 19.9237634 -0.0625 17.4375 C-0.05748694 15.75586067 -0.0529237 14.07421994 -0.04882812 12.39257812 C-0.03777913 8.26168434 -0.02050445 4.13085724 0 0 Z " fill="#DBDBDB" transform="translate(137,77)"/>
<path d="M0 0 C3.52354329 3.34902818 6.50591762 6.99851222 9.5 10.8125 C9.97308594 11.40353516 10.44617188 11.99457031 10.93359375 12.60351562 C14.04586257 16.55635567 16.80772661 20.45962988 19 25 C18.67 26.32 18.34 27.64 18 29 C15.03 29.66 12.06 30.32 9 31 C6.91332693 28.46101341 4.83060498 25.9189517 2.75 23.375 C2.16347656 22.66214844 1.57695312 21.94929688 0.97265625 21.21484375 C-2.25269793 17.26469087 -5.25905161 13.30138931 -8 9 C-7.34 8.67 -6.68 8.34 -6 8 C-5.67 7.01 -5.34 6.02 -5 5 C-4.01 4.34 -3.02 3.68 -2 3 C-1.34 2.01 -0.68 1.02 0 0 Z " fill="#B3B3B3" transform="translate(140,139)"/>
<path d="M0 0 C0.33 0 0.66 0 1 0 C1 6.6 1 13.2 1 20 C-7.49609375 20.87890625 -7.49609375 20.87890625 -10 21 C-11 20 -11 20 -11.09765625 16.40234375 C-11.0909822 14.91403133 -11.07902183 13.42573568 -11.0625 11.9375 C-11.05798828 11.17888672 -11.05347656 10.42027344 -11.04882812 9.63867188 C-11.0370068 7.75908129 -11.01907078 5.87953101 -11 4 C-7.37 4 -3.74 4 0 4 C0 2.68 0 1.36 0 0 Z " fill="#8C8C8C" transform="translate(148,92)"/>
<path d="M0 0 C4.00055301 3.66717359 6.66825595 7.06746451 9 12 C8.67 13.32 8.34 14.64 8 16 C5.03 16.66 2.06 17.32 -1 18 C-3.97 14.37 -6.94 10.74 -10 7 C-8.68 6.34 -7.36 5.68 -6 5 C-5.2265625 4.195625 -5.2265625 4.195625 -4.4375 3.375 C-3 2 -3 2 0 2 C0 1.34 0 0.68 0 0 Z " fill="#858585" transform="translate(150,152)"/>
<path d="M0 0 C0.33 0 0.66 0 1 0 C1 1.65 1 3.3 1 5 C4.62885324 5.15149298 4.62885324 5.15149298 8 4 C8 4.66 8 5.32 8 6 C9.32 6 10.64 6 12 6 C11.67 8.64 11.34 11.28 11 14 C9.35492782 14.19406478 7.70890406 14.38007935 6.0625 14.5625 C4.68771484 14.71912109 4.68771484 14.71912109 3.28515625 14.87890625 C2.53105469 14.91886719 1.77695313 14.95882812 1 15 C0 14 0 14 -0.09765625 10.83984375 C-0.08025391 8.90818359 -0.08025391 8.90818359 -0.0625 6.9375 C-0.05347656 5.64714844 -0.04445312 4.35679688 -0.03515625 3.02734375 C-0.02355469 2.02832031 -0.01195312 1.02929688 0 0 Z " fill="#B6B6B6" transform="translate(137,82)"/>
<path d="M0 0 C0.66 0.33 1.32 0.66 2 1 C2.33 1.99 2.66 2.98 3 4 C3.66 4.33 4.32 4.66 5 5 C5.625 8.0625 5.625 8.0625 6 11 C5.34 11 4.68 11 4 11 C3.67 11.99 3.34 12.98 3 14 C1.68 14 0.36 14 -1 14 C-1.33 14.66 -1.66 15.32 -2 16 C-6.875 11.375 -6.875 11.375 -8 8 C-5.09399739 6.74335022 -3.20395416 6 0 6 C0 4.02 0 2.04 0 0 Z " fill="#424242" transform="translate(158,162)"/>
<path d="M0 0 C3.96 0 7.92 0 12 0 C12 3.3 12 6.6 12 10 C11.01 10.495 11.01 10.495 10 11 C10 10.01 10 9.02 10 8 C6.7 8 3.4 8 0 8 C0 5.36 0 2.72 0 0 Z " fill="#444444" transform="translate(137,112)"/>
<path d="M0 0 C3.96 0 7.92 0 12 0 C12 2.64 12 5.28 12 8 C10.18818595 8.19401633 8.37551468 8.38004375 6.5625 8.5625 C5.04849609 8.71912109 5.04849609 8.71912109 3.50390625 8.87890625 C2.67761719 8.91886719 1.85132813 8.95882812 1 9 C0 8 0 8 -0.09765625 6.15234375 C-0.06510417 4.1015625 -0.03255208 2.05078125 0 0 Z " fill="#656565" transform="translate(137,104)"/>
<path d="M0 0 C0.66 0.33 1.32 0.66 2 1 C2 1.99 2 2.98 2 4 C2.66 4 3.32 4 4 4 C4.66 5.65 5.32 7.3 6 9 C3.0094833 12.33557632 0.06815373 14.15083921 -4 16 C-4.268125 15.195625 -4.53625 14.39125 -4.8125 13.5625 C-5.204375 12.716875 -5.59625 11.87125 -6 11 C-6.99 10.67 -7.98 10.34 -9 10 C-8.67 9.34 -8.34 8.68 -8 8 C-6.68 8 -5.36 8 -4 8 C-3.67 7.34 -3.34 6.68 -3 6 C-2.67 6.33 -2.34 6.66 -2 7 C-1.67 6.34 -1.34 5.68 -1 5 C-0.34 5 0.32 5 1 5 C0.67 3.35 0.34 1.7 0 0 Z " fill="#161616" transform="translate(163,168)"/>
<path d="M0 0 C4.7641112 4.27548441 4.7641112 4.27548441 5.875 7.6875 C6 10 6 10 5 12 C2.93359375 12.6328125 2.93359375 12.6328125 0.4375 13.125 C-0.38878906 13.29257813 -1.21507812 13.46015625 -2.06640625 13.6328125 C-2.70449219 13.75398437 -3.34257812 13.87515625 -4 14 C-4.66 12.68 -5.32 11.36 -6 10 C-4.71937515 8.2925002 -3.38232443 6.62626404 -2 5 C-1.34 5 -0.68 5 0 5 C0 3.35 0 1.7 0 0 Z " fill="#626262" transform="translate(153,156)"/>
<path d="M0 0 C2.0625 1.6875 2.0625 1.6875 4 4 C4.125 6.4375 4.125 6.4375 3 9 C1.11411964 10.90146615 -0.83910612 12.39082371 -3 14 C-4.65 12.35 -6.3 10.7 -8 9 C-7.34 8.67 -6.68 8.34 -6 8 C-5.67 7.01 -5.34 6.02 -5 5 C-4.01 4.34 -3.02 3.68 -2 3 C-1.34 2.01 -0.68 1.02 0 0 Z " fill="#C7C7C7" transform="translate(140,139)"/>
<path d="M0 0 C0.70125 0.07863281 1.4025 0.15726562 2.125 0.23828125 C4 0.6875 4 0.6875 6 2.6875 C6 3.6775 6 4.6675 6 5.6875 C5.34 5.6875 4.68 5.6875 4 5.6875 C4 6.6775 4 7.6675 4 8.6875 C3.34 8.6875 2.68 8.6875 2 8.6875 C1.67 7.6975 1.34 6.7075 1 5.6875 C-0.65 5.3575 -2.3 5.0275 -4 4.6875 C-4 5.3475 -4 6.0075 -4 6.6875 C-4.66 6.6875 -5.32 6.6875 -6 6.6875 C-6 4.7075 -6 2.7275 -6 0.6875 C-3.63106495 -0.49696753 -2.5933174 -0.31939755 0 0 Z " fill="#1D1D1D" transform="translate(143,119.3125)"/>
<path d="M0 0 C0.99 0.66 1.98 1.32 3 2 C2.67 3.98 2.34 5.96 2 8 C0.68 8.33 -0.64 8.66 -2 9 C-2 9.99 -2 10.98 -2 12 C-3.875 11.6875 -3.875 11.6875 -6 11 C-6.66 10.01 -7.32 9.02 -8 8 C-6 5 -6 5 -3.4375 4 C-2.633125 3.67 -1.82875 3.34 -1 3 C-0.67 2.01 -0.34 1.02 0 0 Z " fill="#E1E1E1" transform="translate(137,136)"/>
<path d="M0 0 C1.546875 1.23828125 1.546875 1.23828125 3 3 C2.890625 4.98046875 2.890625 4.98046875 2.25 7.1875 C1.11236483 11.47118797 0.48050462 15.59537433 0 20 C-1.94152575 17.82268171 -2.96387579 16.59165598 -3.14453125 13.6328125 C-2.51472203 8.8759005 -1.77533246 4.49750891 0 0 Z " fill="#2D2D2D" transform="translate(28,84)"/>
<path d="M0 0 C2 3 2 3 2 6 C1.34 6 0.68 6 0 6 C-0.33 6.99 -0.66 7.98 -1 9 C-2.32 9 -3.64 9 -5 9 C-5.33 9.66 -5.66 10.32 -6 11 C-6.33 9.35 -6.66 7.7 -7 6 C-4.69 4.02 -2.38 2.04 0 0 Z " fill="#323232" transform="translate(162,167)"/>
<path d="M0 0 C0.33 0 0.66 0 1 0 C1 2.31 1 4.62 1 7 C0.01 7.495 0.01 7.495 -1 8 C-1 7.01 -1 6.02 -1 5 C-4.3 5 -7.6 5 -11 5 C-11 4.01 -11 3.02 -11 2 C-7.54532069 0.84844023 -5.1391755 0.49369978 -1.75 2 C-1.1725 2.33 -0.595 2.66 0 3 C0 2.01 0 1.02 0 0 Z " fill="#313131" transform="translate(148,115)"/>
<path d="M0 0 C3.2542015 2.83430453 4.5206753 4.68607774 5 9 C4.13375 8.62875 4.13375 8.62875 3.25 8.25 C2.5075 8.1675 1.765 8.085 1 8 C-1.27144074 9.85432087 -1.27144074 9.85432087 -3 12 C-3.33 10.02 -3.66 8.04 -4 6 C-3.34 6 -2.68 6 -2 6 C-1.34 4.02 -0.68 2.04 0 0 Z " fill="#999999" transform="translate(146,147)"/>
<path d="M0 0 C2.72106694 2.72106694 2.60655572 4.84776311 3.125 8.625 C3.29257813 9.81351563 3.46015625 11.00203125 3.6328125 12.2265625 C3.75398437 13.14179687 3.87515625 14.05703125 4 15 C3.67 15 3.34 15 3 15 C2.67 16.65 2.34 18.3 2 20 C-0.56780471 16.1584024 -0.22688882 12.1860825 -0.125 7.75 C-0.11597656 7.00492187 -0.10695312 6.25984375 -0.09765625 5.4921875 C-0.07418358 3.66131941 -0.03831525 1.83061762 0 0 Z " fill="#282828" transform="translate(196,84)"/>
<path d="M0 0 C-1.98 2.31 -3.96 4.62 -6 7 C-7.32 6.34 -8.64 5.68 -10 5 C-9.34 4.67 -8.68 4.34 -8 4 C-7.67 3.01 -7.34 2.02 -7 1 C-2.55696203 -1.27848101 -2.55696203 -1.27848101 0 0 Z " fill="#787878" transform="translate(154,159)"/>
<path d="M0 0 C1.8871875 0.0309375 1.8871875 0.0309375 3.8125 0.0625 C3.4825 2.0425 3.1525 4.0225 2.8125 6.0625 C2.4825 5.0725 2.1525 4.0825 1.8125 3.0625 C-0.4975 2.7325 -2.8075 2.4025 -5.1875 2.0625 C-5.1875 2.7225 -5.1875 3.3825 -5.1875 4.0625 C-5.8475 4.0625 -6.5075 4.0625 -7.1875 4.0625 C-7.1875 3.0725 -7.1875 2.0825 -7.1875 1.0625 C-4.43671116 0.14557039 -2.82801087 -0.04636083 0 0 Z " fill="#F0F0F0" transform="translate(145.1875,76.9375)"/>
<path d="M0 0 C0.99 0.495 0.99 0.495 2 1 C1.67 2.32 1.34 3.64 1 5 C0.67 3.35 0.34 1.7 0 0 Z M-1 5 C-0.01 5.495 -0.01 5.495 1 6 C0.01 6.495 0.01 6.495 -1 7 C-1 6.34 -1 5.68 -1 5 Z M-4 6 C-3.34 6.99 -2.68 7.98 -2 9 C-2.99 10.485 -2.99 10.485 -4 12 C-6.475 11.01 -6.475 11.01 -9 10 C-8.67 9.34 -8.34 8.68 -8 8 C-6.68 8 -5.36 8 -4 8 C-4 7.34 -4 6.68 -4 6 Z " fill="#202020" transform="translate(163,168)"/>
<path d="M0 0 C-0.61875 0.061875 -1.2375 0.12375 -1.875 0.1875 C-4.27761141 0.828919 -4.27761141 0.828919 -5.25 3.5625 C-5.4975 4.366875 -5.745 5.17125 -6 6 C-7.32 5.67 -8.64 5.34 -10 5 C-9.34 5 -8.68 5 -8 5 C-8 4.34 -8 3.68 -8 3 C-8.66 2.67 -9.32 2.34 -10 2 C-8.71211992 1.46987262 -7.41953322 0.9511671 -6.125 0.4375 C-5.40570313 0.14746094 -4.68640625 -0.14257812 -3.9453125 -0.44140625 C-2 -1 -2 -1 0 0 Z " fill="#232323" transform="translate(146,192)"/>
<path d="M0 0 C3 0 3 0 5.1875 2 C5.785625 2.66 6.38375 3.32 7 4 C6.01 4.495 6.01 4.495 5 5 C5.33 5.99 5.66 6.98 6 8 C5.34 8 4.68 8 4 8 C0 2.58823529 0 2.58823529 0 0 Z " fill="#242424" transform="translate(38,160)"/>
<path d="M0 0 C2.2109885 0.42793326 3.98119242 0.99059621 6 2 C5.67 3.32 5.34 4.64 5 6 C1.83884224 4.63016497 1.0072908 4.0109362 -1 1 C-0.67 0.67 -0.34 0.34 0 0 Z " fill="#A8A8A8" transform="translate(137,152)"/>
<path d="M0 0 C1.5625 1.125 1.5625 1.125 3 3 C2.6875 6.1875 2.6875 6.1875 2 9 C1.34 8.34 0.68 7.68 0 7 C-0.66 7.99 -1.32 8.98 -2 10 C-1.125 2.25 -1.125 2.25 0 0 Z " fill="#242424" transform="translate(28,84)"/>
<path d="M0 0 C2 1 4 2 6 3 C5.67 3.66 5.34 4.32 5 5 C4.01 5.33 3.02 5.66 2 6 C-0.6875 4.5625 -0.6875 4.5625 -3 3 C-2.34 2.67 -1.68 2.34 -1 2 C-0.34 2.33 0.32 2.66 1 3 C0.67 2.01 0.34 1.02 0 0 Z " fill="#222222" transform="translate(156,35)"/>
<path d="M0 0 C0 1.32 0 2.64 0 4 C-2.64 3.67 -5.28 3.34 -8 3 C-5.53387212 -0.1151089 -3.89156016 -0.31553191 0 0 Z " fill="#272727" transform="translate(104,197)"/>
<path d="M0 0 C0.66 0.33 1.32 0.66 2 1 C3.26229508 5.47540984 3.26229508 5.47540984 2 8 C0.68 8.33 -0.64 8.66 -2 9 C-1.34 6.03 -0.68 3.06 0 0 Z " fill="#525252" transform="translate(156,160)"/>
<path d="M0 0 C0.99 0.495 0.99 0.495 2 1 C2 1.66 2 2.32 2 3 C2.66 3 3.32 3 4 3 C4.66 4.65 5.32 6.3 6 8 C5.01 7.67 4.02 7.34 3 7 C3 6.34 3 5.68 3 5 C2.01 5.33 1.02 5.66 0 6 C0 4.02 0 2.04 0 0 Z " fill="#262626" transform="translate(182,58)"/>
<path d="M0 0 C-0.33 0.66 -0.66 1.32 -1 2 C-3.97 1.67 -6.94 1.34 -10 1 C-10 0.67 -10 0.34 -10 0 C-6.33694766 -0.74926071 -3.57644848 -1.2380014 0 0 Z " fill="#343434" transform="translate(111,25)"/>
<path d="M0 0 C2.64 0 5.28 0 8 0 C7.01 0.66 6.02 1.32 5 2 C5 2.66 5 3.32 5 4 C3.35 4 1.7 4 0 4 C0 2.68 0 1.36 0 0 Z " fill="#252525" transform="translate(99,24)"/>
<path d="M0 0 C0.99 0.33 1.98 0.66 3 1 C3.6875 3.0625 3.6875 3.0625 4 5 C3.34 5 2.68 5 2 5 C1.67 5.66 1.34 6.32 1 7 C-0.0625 4.625 -0.0625 4.625 -1 2 C-0.67 1.34 -0.34 0.68 0 0 Z " fill="#292929" transform="translate(189,71)"/>
<path d="M0 0 C1.32 1.32 2.64 2.64 4 4 C3.01 4.495 3.01 4.495 2 5 C2 5.66 2 6.32 2 7 C1.34 7 0.68 7 0 7 C0 4.69 0 2.38 0 0 Z " fill="#111111" transform="translate(89,93)"/>
<path d="M0 0 C3 1 3 1 5 4 C4.625 6.1875 4.625 6.1875 4 8 C0 2.25 0 2.25 0 0 Z " fill="#323232" transform="translate(177,54)"/>
<path d="M0 0 C-0.33 0.99 -0.66 1.98 -1 3 C-4.0625 4.1875 -4.0625 4.1875 -7 5 C-6.1875 3.0625 -6.1875 3.0625 -5 1 C-2 0 -2 0 0 0 Z " fill="#323232" transform="translate(62,42)"/>
</svg>
