<?xml version="1.0" encoding="UTF-8"?>
<svg version="1.1" xmlns="http://www.w3.org/2000/svg" width="602" height="368">
<path d="M0 0 C198.66 0 397.32 0 602 0 C602 121.44 602 242.88 602 368 C403.34 368 204.68 368 0 368 C0 246.56 0 125.12 0 0 Z " fill="#E0FEDD" transform="translate(0,0)"/>
<path d="M0 0 C3.72406906 0.47013356 6.55711726 1.63480128 9.828125 3.43359375 C10.70984375 3.91763672 11.5915625 4.40167969 12.5 4.90039062 C13.86125 5.66125977 13.86125 5.66125977 15.25 6.4375 C16.17296875 6.94087891 17.0959375 7.44425781 18.046875 7.96289062 C24.87048011 11.74096022 24.87048011 11.74096022 26 14 C26.10210935 15.39714616 26.14372654 16.79896304 26.15390015 18.19979858 C26.16250061 19.08025345 26.17110107 19.96070831 26.17996216 20.86784363 C26.18422211 21.83619644 26.18848206 22.80454926 26.19287109 23.80224609 C26.20513733 25.32923378 26.20513733 25.32923378 26.21765137 26.8870697 C26.24252538 30.26585292 26.25902482 33.64459413 26.2734375 37.0234375 C26.27876118 38.17502979 26.28408485 39.32662209 26.28956985 40.51311111 C26.31630767 46.60606471 26.33568228 52.69899775 26.35009766 58.79199219 C26.3667647 65.09630043 26.41155844 71.40008786 26.4624691 77.70419884 C26.49606225 82.54255805 26.50766631 87.38079232 26.51332474 92.21925735 C26.52005706 94.54375829 26.53533008 96.86825044 26.55921555 99.1926384 C26.59070454 102.44185096 26.59092814 105.68964085 26.58349609 108.93896484 C26.59990143 109.9032692 26.61630676 110.86757355 26.63320923 111.86109924 C26.57197868 118.38344999 26.57197868 118.38344999 23.67764282 121.50332642 C22.79402069 121.9972287 21.91039856 122.49113098 21 123 C19.86949219 123.66257812 18.73898437 124.32515625 17.57421875 125.0078125 C16.28072577 125.71734667 14.98503973 126.42289354 13.6875 127.125 C9.23862996 129.5607434 4.86111454 132.04599017 0.60546875 134.80859375 C-0.10375732 135.2679834 -0.8129834 135.72737305 -1.54370117 136.20068359 C-2.90171857 137.08924911 -4.25258253 137.98887346 -5.5949707 138.90087891 C-9.57425191 141.49797044 -12.25528006 142.7886835 -17 142 C-20.2109375 140.5390625 -20.2109375 140.5390625 -23.375 138.625 C-24.43460937 137.99851563 -25.49421875 137.37203125 -26.5859375 136.7265625 C-27.38257813 136.15679687 -28.17921875 135.58703125 -29 135 C-29 134.34 -29 133.68 -29 133 C-29.72574219 132.88785156 -30.45148438 132.77570313 -31.19921875 132.66015625 C-34.12563993 131.97038613 -36.22287809 130.94489186 -38.8125 129.4375 C-39.60269531 128.98246094 -40.39289063 128.52742187 -41.20703125 128.05859375 C-41.79871094 127.70925781 -42.39039063 127.35992187 -43 127 C-43 126.34 -43 125.68 -43 125 C-43.721875 124.896875 -44.44375 124.79375 -45.1875 124.6875 C-48.2995925 123.92676628 -50.40754152 122.87233113 -53 121 C-53.89715149 118.30854553 -54.15813473 116.58535439 -54.24047852 113.80737305 C-54.26622452 112.96607346 -54.29197052 112.12477386 -54.3184967 111.25798035 C-54.40300789 107.41604097 -54.46849124 103.57428056 -54.51489258 99.73168945 C-54.54655184 97.7072829 -54.59432649 95.68306231 -54.65844727 93.65942383 C-54.74981439 90.73448292 -54.7885172 87.81287206 -54.81640625 84.88671875 C-54.85455948 83.98652512 -54.89271271 83.08633148 -54.93202209 82.15885925 C-54.92038483 78.38501239 -54.90092763 75.98315906 -52.28260803 73.12585449 C-50.24986464 71.57841735 -48.21989385 70.26091991 -46 69 C-44.88238281 68.32195312 -43.76476562 67.64390625 -42.61328125 66.9453125 C-41.52402344 66.34460938 -40.43476563 65.74390625 -39.3125 65.125 C-35.04004465 62.75920756 -30.87872004 60.30674804 -26.7890625 57.63671875 C-17.12413998 51.39762558 -17.12413998 51.39762558 -11 52 C-8.44018555 53.34912109 -8.44018555 53.34912109 -5.76171875 55.0234375 C-4.42113403 55.85367432 -4.42113403 55.85367432 -3.0534668 56.70068359 C-2.37582275 57.12945801 -1.69817871 57.55823242 -1 58 C-1.00222061 57.28812027 -1.00444122 56.57624054 -1.00672913 55.8427887 C-1.02673253 49.14725765 -1.04197438 42.45173489 -1.05181217 35.75618076 C-1.05703982 32.31359652 -1.06413531 28.87103688 -1.07543945 25.4284668 C-1.08834235 21.47444957 -1.09322918 17.52044244 -1.09765625 13.56640625 C-1.10281754 12.32476212 -1.10797882 11.08311798 -1.11329651 9.80384827 C-1.11337204 8.66274094 -1.11344757 7.52163361 -1.11352539 6.34594727 C-1.115746 5.335569 -1.11796661 4.32519073 -1.12025452 3.28419495 C-1 1 -1 1 0 0 Z " fill="#353735" transform="translate(363,71)"/>
<path d="M0 0 C4.2525066 1.9050556 8.234001 4.20590606 12.25 6.5625 C13.85294922 7.47612305 13.85294922 7.47612305 15.48828125 8.40820312 C34.08484531 19.08484531 34.08484531 19.08484531 37 22 C37.12906251 23.37905548 37.19103174 24.76449534 37.22460938 26.14916992 C37.25838684 27.47140816 37.25838684 27.47140816 37.29284668 28.82035828 C37.36369648 32.87079627 37.42140778 36.9210436 37.45996094 40.97192383 C37.48654503 43.10691794 37.52744481 45.24178417 37.58300781 47.3762207 C37.66220353 50.45316522 37.69528241 53.52765393 37.71875 56.60546875 C37.75174194 57.55568405 37.78473389 58.50589935 37.81872559 59.48490906 C37.79916854 65.98649501 37.79916854 65.98649501 35.48538208 68.9208374 C32.24772086 71.74548327 28.71002996 73.93945196 24.875 75.875 C20.555517 78.13588642 16.39287208 80.55356216 12.25 83.125 C11.16074219 83.79660156 10.07148438 84.46820313 8.94921875 85.16015625 C7.23123551 86.23190473 5.5210294 87.3167247 3.83203125 88.43359375 C1.10215097 90.175173 -0.52465935 91.0344738 -3.80078125 90.796875 C-7.38328185 89.90453053 -10.06884228 88.55383248 -13.25 86.6875 C-14.28640625 86.09324219 -15.3228125 85.49898438 -16.390625 84.88671875 C-18.96567774 83.02481684 -19.93611234 81.93866531 -21 79 C-23.97 79.495 -23.97 79.495 -27 80 C-27 79.34 -27 78.68 -27 78 C-27.73605469 77.61328125 -28.47210938 77.2265625 -29.23046875 76.828125 C-41.99099099 70.01801802 -41.99099099 70.01801802 -44 66 C-44.1089724 64.63808795 -44.15893479 63.2711746 -44.17700195 61.9050293 C-44.18983719 61.06042648 -44.20267242 60.21582367 -44.21589661 59.34562683 C-44.22328354 58.43106216 -44.23067047 57.5164975 -44.23828125 56.57421875 C-44.246353 55.63447708 -44.25442474 54.69473541 -44.26274109 53.72651672 C-44.27658553 51.7350957 -44.28730607 49.7436509 -44.29516602 47.75219727 C-44.31237279 44.70999032 -44.35625482 41.66887175 -44.40039062 38.62695312 C-44.41051804 36.69271633 -44.41903399 34.75847029 -44.42578125 32.82421875 C-44.44328934 31.91572678 -44.46079742 31.0072348 -44.47883606 30.07121277 C-44.46438375 25.85215847 -44.37597175 23.60418505 -42.1015625 19.94921875 C-39.91523429 17.92137902 -38.51514899 17.15737612 -35.6875 16.3125 C-30.02408782 14.27367161 -25.42144559 11.13940542 -20.5300293 7.7043457 C-7.56326381 -1.32592488 -7.56326381 -1.32592488 0 0 Z " fill="#DBFCD8" transform="translate(302,207)"/>
<path d="M0 0 C2.4908604 1.32789977 4.81840008 2.67395099 7.1875 4.1875 C8.51706175 5.0136006 9.84779979 5.83781095 11.1796875 6.66015625 C11.82905273 7.06250488 12.47841797 7.46485352 13.14746094 7.87939453 C15.65151976 9.39410591 18.22249418 10.76358668 20.8125 12.125 C22.0188208 12.81094238 22.0188208 12.81094238 23.24951172 13.51074219 C25.92978981 15.03855121 25.92978981 15.03855121 28.65234375 16.01879883 C32.02618091 17.64325069 33.75003073 18.96699496 36 22 C37.70049037 28.29656571 37.3936573 34.95690126 37.2487793 41.42456055 C37.1875473 44.56007803 37.2278957 47.68288745 37.27929688 50.81835938 C37.26909525 52.81774856 37.25301769 54.8171182 37.23046875 56.81640625 C37.24554977 57.74779922 37.2606308 58.6791922 37.27616882 59.6388092 C37.13252093 63.62988573 36.99455102 66.04156128 34.03918457 68.88961792 C31.74967733 70.43326369 29.45692451 71.74376642 27 73 C25.81211389 73.70330708 24.62691886 74.41119285 23.4453125 75.125 C22.34960938 75.74375 21.25390625 76.3625 20.125 77 C19.53348145 77.33539795 18.94196289 77.6707959 18.33251953 78.01635742 C13.69327399 80.63769947 9.01216066 83.17896038 4.3046875 85.67578125 C1.95311261 86.92859507 1.95311261 86.92859507 0.0078125 88.73046875 C-2 90 -2 90 -4.42578125 89.87109375 C-7.28671924 88.90297664 -9.61983732 87.65126556 -12.1875 86.0625 C-13.04730469 85.53785156 -13.90710938 85.01320313 -14.79296875 84.47265625 C-17 83 -17 83 -19 81 C-21.31648799 79.96157435 -23.64903024 78.9578025 -26 78 C-26 77.34 -26 76.68 -26 76 C-26.55558594 75.88398438 -27.11117187 75.76796875 -27.68359375 75.6484375 C-30.32682622 74.9085107 -32.60571275 73.84783529 -35.0625 72.625 C-35.91972656 72.20476562 -36.77695313 71.78453125 -37.66015625 71.3515625 C-39.93814388 70.03572991 -41.34998478 69.02993468 -43 67 C-43.39440918 64.91308594 -43.39440918 64.91308594 -43.41992188 62.484375 C-43.43583374 61.57333008 -43.45174561 60.66228516 -43.46813965 59.72363281 C-43.46834106 58.74233398 -43.46854248 57.76103516 -43.46875 56.75 C-43.48017029 55.2355127 -43.48017029 55.2355127 -43.49182129 53.69042969 C-43.50262862 51.55536371 -43.50547284 49.42024484 -43.50097656 47.28515625 C-43.50000361 44.01212857 -43.54163214 40.74143939 -43.5859375 37.46875 C-43.59114381 35.39583824 -43.59383271 33.3229183 -43.59375 31.25 C-43.61014526 30.26870117 -43.62654053 29.28740234 -43.64343262 28.27636719 C-43.61762965 25.75013372 -43.55715225 23.4641338 -43 21 C-40.54224664 18.81886827 -39.27604773 18 -36 18 C-36 17.34 -36 16.68 -36 16 C-35.48203857 15.73372803 -34.96407715 15.46745605 -34.43041992 15.19311523 C-32.01330017 13.94659925 -29.59988797 12.6931494 -27.1875 11.4375 C-25.88486206 10.76110474 -25.88486206 10.76110474 -24.5559082 10.07104492 C-18.85248782 7.07442265 -13.5268343 3.89154975 -8.32421875 0.08203125 C-5.06362858 -1.43592418 -3.43133028 -1.01920701 0 0 Z " fill="#68A559" transform="translate(256,123)"/>
<path d="M0 0 C2.18359375 1.03125 2.18359375 1.03125 4.4375 2.5 C8.5920905 5.12297281 12.7901461 7.63681297 17.0625 10.0625 C17.6603833 10.40369873 18.2582666 10.74489746 18.87426758 11.09643555 C22.93504927 13.40979313 27.01873961 15.67741415 31.1328125 17.89453125 C31.74898438 18.25933594 32.36515625 18.62414062 33 19 C34.03371735 19.59860588 34.03371735 19.59860588 35.08831787 20.20930481 C37 22 37 22 37.48101807 24.60063171 C37.4676944 26.16283195 37.4676944 26.16283195 37.45410156 27.7565918 C37.45379944 28.93758957 37.45349731 30.11858734 37.45318604 31.33537292 C37.43254089 32.61044205 37.41189575 33.88551117 37.390625 35.19921875 C37.38496521 36.50454056 37.37930542 37.80986237 37.37347412 39.15473938 C37.35821392 42.62218946 37.31893032 46.08896749 37.2746582 49.55615234 C37.23371291 53.09528512 37.21546479 56.63452668 37.1953125 60.17382812 C37.15243532 67.11616119 37.08418015 74.05804832 37 81 C34 82 34 82 30.41796875 80.26953125 C29.00184252 79.4608872 27.59187957 78.64137679 26.1875 77.8125 C25.48818359 77.41224609 24.78886719 77.01199219 24.06835938 76.59960938 C13.49956789 70.49956789 13.49956789 70.49956789 11 68 C10.97613906 65.86198385 11.01125122 63.72327092 11.0703125 61.5859375 C11.0822269 59.55453297 11.09399843 57.5231246 11.1015625 55.49169922 C11.11707205 54.09099314 11.15033919 52.69036086 11.20214844 51.29052734 C11.61612358 42.71323609 11.61612358 42.71323609 7.65136719 35.44238281 C2.41121098 31.84551493 2.41121098 31.84551493 -3.72119141 31.27294922 C-6.18954877 32.06047528 -8.08654197 33.07971458 -10.25 34.5 C-11.27867187 35.16515625 -11.27867187 35.16515625 -12.328125 35.84375 C-13.95429566 36.89450775 -13.95429566 36.89450775 -15 38 C-15.09756116 40.17149205 -15.13205545 42.34586558 -15.140625 44.51953125 C-15.15895762 45.86525124 -15.17852836 47.21095482 -15.19921875 48.55664062 C-15.2281663 50.68330392 -15.24999918 52.80891807 -15.25048828 54.93579102 C-15.2538285 56.98548977 -15.28840847 59.03275572 -15.328125 61.08203125 C-15.3374707 62.31155518 -15.34681641 63.5410791 -15.35644531 64.80786133 C-16 68 -16 68 -18.38842773 70.36694336 C-20.87049422 71.91901802 -23.01724007 72.91559405 -25.8125 73.75 C-26.60269531 73.99234375 -27.39289063 74.2346875 -28.20703125 74.484375 C-28.79871094 74.65453125 -29.39039063 74.8246875 -30 75 C-30 75.66 -30 76.32 -30 77 C-34.06666523 78.83398628 -37.60843128 80.16215572 -42 81 C-42.0694906 73.35923782 -42.1228064 65.71850838 -42.15543652 58.07750225 C-42.17109693 54.52950064 -42.19234151 50.98171513 -42.22631836 47.43383789 C-42.26513007 43.35561033 -42.27970602 39.27760999 -42.29296875 35.19921875 C-42.30845261 33.92414963 -42.32393646 32.64908051 -42.33988953 31.33537292 C-42.34011612 30.15437515 -42.34034271 28.97337738 -42.34057617 27.7565918 C-42.34723801 26.71512497 -42.35389984 25.67365814 -42.36076355 24.60063171 C-42 22 -42 22 -40.62132263 20.22544861 C-38.53475482 18.64835249 -36.37268253 17.45536363 -34.0546875 16.2421875 C-30.01312079 14.09032271 -26.02424682 11.87949369 -22.0703125 9.5703125 C-21.090625 9.003125 -20.1109375 8.4359375 -19.1015625 7.8515625 C-17.08946466 6.68444013 -15.08174288 5.5097458 -13.078125 4.328125 C-12.10617188 3.76867187 -11.13421875 3.20921875 -10.1328125 2.6328125 C-9.26543457 2.12637207 -8.39805664 1.61993164 -7.50439453 1.09814453 C-4.74945756 -0.10985961 -2.97494111 -0.29420082 0 0 Z " fill="#343734" transform="translate(158,122)"/>
<path d="M0 0 C3.52385252 1.49429189 6.7937259 3.30073035 10.09375 5.234375 C11.51791352 6.05263295 12.9423942 6.87033914 14.3671875 7.6875 C15.06295898 8.08904297 15.75873047 8.49058594 16.47558594 8.90429688 C19.20336551 10.46799217 21.95740574 11.98089376 24.71875 13.484375 C25.54890625 13.93683594 26.3790625 14.38929688 27.234375 14.85546875 C29.29637434 15.9549614 31.37300165 17.01342111 33.46875 18.046875 C33.46875 18.706875 33.46875 19.366875 33.46875 20.046875 C34.273125 20.35625 35.0775 20.665625 35.90625 20.984375 C38.46875 22.046875 38.46875 22.046875 39.46875 23.046875 C39.64733965 25.14603526 39.73673477 27.25310188 39.78125 29.359375 C39.83732422 31.08607422 39.83732422 31.08607422 39.89453125 32.84765625 C39.46875 36.046875 39.46875 36.046875 37.57421875 38.46484375 C35.46875 40.046875 35.46875 40.046875 33.46875 40.046875 C33.46875 40.706875 33.46875 41.366875 33.46875 42.046875 C32.52 42.418125 31.57125 42.789375 30.59375 43.171875 C26.3554478 44.95006289 22.62575318 47.40759731 18.80078125 49.9375 C16.46875 51.046875 16.46875 51.046875 14.16796875 50.71875 C13.60722656 50.49703125 13.04648437 50.2753125 12.46875 50.046875 C12.51257813 49.25023437 12.55640625 48.45359375 12.6015625 47.6328125 C12.66623769 41.17955904 12.66623769 41.17955904 9.421875 35.87890625 C5.4300131 33.33258222 2.47910288 32.08055343 -2.28125 31.921875 C-5.83880712 33.15333708 -8.48772287 34.85270428 -11.53125 37.046875 C-12.19125 37.046875 -12.85125 37.046875 -13.53125 37.046875 C-14.55665 46.35554078 -14.55665 46.35554078 -11.19042969 54.65576172 C-6.69370999 58.39775957 -1.42196752 60.932328 4.01171875 63.02734375 C7.23706615 64.36568345 10.06788148 66.14042495 13.03125 67.984375 C14.14628906 68.67402344 15.26132812 69.36367187 16.41015625 70.07421875 C21.8037208 73.55282679 21.8037208 73.55282679 23.46875 75.046875 C23.46875 76.036875 23.46875 77.026875 23.46875 78.046875 C22.623125 78.49417969 21.7775 78.94148438 20.90625 79.40234375 C19.771875 80.00691406 18.6375 80.61148438 17.46875 81.234375 C16.57724243 81.70822632 16.57724243 81.70822632 15.66772461 82.19165039 C11.7214443 84.31038303 7.97848963 86.57929025 4.34765625 89.19921875 C1.55372249 90.45968367 -0.49574513 90.37278439 -3.53125 90.046875 C-6.3828125 88.62109375 -6.3828125 88.62109375 -9.15625 86.734375 C-10.07664062 86.11949219 -10.99703125 85.50460938 -11.9453125 84.87109375 C-13.5437116 83.74352218 -15.12491556 82.59054191 -16.67578125 81.3984375 C-18.78379149 79.86291846 -20.99179071 78.98116525 -23.39453125 77.99609375 C-35.96586225 72.41138912 -35.96586225 72.41138912 -39.53125 68.046875 C-39.95257568 65.98014832 -39.95257568 65.98014832 -40.01464844 63.57885742 C-40.04347107 62.67749557 -40.0722937 61.77613373 -40.10198975 60.84745789 C-40.11473938 59.87557022 -40.12748901 58.90368256 -40.140625 57.90234375 C-40.15772522 56.89980057 -40.17482544 55.89725739 -40.19244385 54.86433411 C-40.22078867 52.74192803 -40.24039389 50.61939003 -40.25195312 48.49682617 C-40.28106214 45.25529474 -40.37408115 42.0194861 -40.46875 38.77929688 C-40.48834312 36.7161797 -40.50409338 34.65302173 -40.515625 32.58984375 C-40.55266541 31.62402878 -40.58970581 30.65821381 -40.62786865 29.66313171 C-40.60008077 26.85197069 -40.47263013 24.69950589 -39.53125 22.046875 C-36.82867252 19.4037008 -33.89881921 17.72240186 -30.53125 16.046875 C-29.644375 15.53640625 -28.7575 15.0259375 -27.84375 14.5 C-27.080625 14.10296875 -26.3175 13.7059375 -25.53125 13.296875 C-22.02089884 11.44225604 -18.60268768 9.49645117 -15.2265625 7.41015625 C-14.47246094 6.94899414 -13.71835937 6.48783203 -12.94140625 6.01269531 C-11.43930405 5.0902505 -9.94420547 4.1562845 -8.45703125 3.20996094 C-3.29417749 0.06100329 -3.29417749 0.06100329 0 0 Z " fill="#353835" transform="translate(446.53125,121.953125)"/>
<path d="M0 0 C4.2525066 1.9050556 8.234001 4.20590606 12.25 6.5625 C13.85294922 7.47612305 13.85294922 7.47612305 15.48828125 8.40820312 C34.08484531 19.08484531 34.08484531 19.08484531 37 22 C37.12906251 23.37905548 37.19103174 24.76449534 37.22460938 26.14916992 C37.25838684 27.47140816 37.25838684 27.47140816 37.29284668 28.82035828 C37.36369648 32.87079627 37.42140778 36.9210436 37.45996094 40.97192383 C37.48654503 43.10691794 37.52744481 45.24178417 37.58300781 47.3762207 C37.66220353 50.45316522 37.69528241 53.52765393 37.71875 56.60546875 C37.75174194 57.55568405 37.78473389 58.50589935 37.81872559 59.48490906 C37.79916854 65.98649501 37.79916854 65.98649501 35.48538208 68.9208374 C32.24772086 71.74548327 28.71002996 73.93945196 24.875 75.875 C20.555517 78.13588642 16.39287208 80.55356216 12.25 83.125 C11.16074219 83.79660156 10.07148438 84.46820313 8.94921875 85.16015625 C7.23123551 86.23190473 5.5210294 87.3167247 3.83203125 88.43359375 C1.10890008 90.17086728 -0.52486668 91.03322611 -3.79296875 90.8046875 C-7.43276839 89.89141256 -10.15217121 88.47630327 -13.375 86.5625 C-14.43460937 85.94503906 -15.49421875 85.32757813 -16.5859375 84.69140625 C-17.78089844 83.85416016 -17.78089844 83.85416016 -19 83 C-19 82.34 -19 81.68 -19 81 C-16.49349509 79.97693677 -14.65814439 79.23317056 -12 79 C-10.15234375 79.79296875 -10.15234375 79.79296875 -8.375 80.9375 C-5.30507852 83.27817043 -5.30507852 83.27817043 -2.54296875 82.76171875 C-0.08419485 82.02521965 1.84969934 81.1626027 4.0625 79.875 C4.83722656 79.42898438 5.61195313 78.98296875 6.41015625 78.5234375 C7.69212891 77.76933594 7.69212891 77.76933594 9 77 C9.96808594 76.43539062 10.93617188 75.87078125 11.93359375 75.2890625 C13.89545659 74.14443424 15.85529573 72.99632585 17.8125 71.84375 C21.84558351 69.51088797 25.92713925 67.26270041 30 65 C30 51.8 30 38.6 30 25 C26.37 23.02 22.74 21.04 19 19 C18.01 18.34 17.02 17.68 16 17 C16 16.34 16 15.68 16 15 C15.29359375 14.90976563 14.5871875 14.81953125 13.859375 14.7265625 C10.44238892 13.85831194 8.18154892 12.32161053 5.25 10.375 C1.17014815 7.8957831 -1.45005612 6.47769671 -6.25 7.0625 C-7.4875 7.371875 -8.725 7.68125 -10 8 C-10 8.66 -10 9.32 -10 10 C-11.11117187 10.58007812 -12.22234375 11.16015625 -13.3671875 11.7578125 C-14.86987206 12.54672189 -16.37247163 13.33579318 -17.875 14.125 C-18.60203125 14.50398437 -19.3290625 14.88296875 -20.078125 15.2734375 C-21.59331658 16.07090675 -23.09495608 16.8945481 -24.58349609 17.74072266 C-27 19 -27 19 -29.77978516 19.92724609 C-33.07488338 21.24937867 -34.76916717 22.20712914 -37 25 C-38.70519762 31.57242072 -37.9315087 38.66535113 -37.625 45.375 C-37.57481394 47.27462331 -37.52919093 49.17437303 -37.48828125 51.07421875 C-37.37831928 55.71927123 -37.20594783 60.35825283 -37 65 C-35.57724201 65.83295329 -34.1491026 66.65671926 -32.71875 67.4765625 C-31.92404297 67.93627441 -31.12933594 68.39598633 -30.31054688 68.86962891 C-27.40001907 70.29352406 -25.19167988 70.47875198 -22 70 C-19.84543031 67.84543031 -20.73973374 62.9288373 -20.68359375 59.93359375 C-20.66281265 59.02497086 -20.64203156 58.11634796 -20.62062073 57.18019104 C-20.55502328 54.26604054 -20.4961932 51.35179696 -20.4375 48.4375 C-20.39432446 46.46678709 -20.35071049 44.49608374 -20.30664062 42.52539062 C-20.19933157 37.68369012 -20.09809325 32.84189563 -20 28 C-18.02 28 -16.04 28 -14 28 C-13.9008983 34.01394883 -13.82842084 40.02741915 -13.78027344 46.04199219 C-13.7601958 48.0866728 -13.73292775 50.13129627 -13.69824219 52.17578125 C-13.64955481 55.11993537 -13.62699256 58.06332834 -13.609375 61.0078125 C-13.58872986 61.9174173 -13.56808472 62.82702209 -13.54681396 63.76419067 C-13.54481141 69.46739288 -14.18206839 72.66894535 -18 77 C-23.17772836 78.63871641 -28.25691779 77.80399667 -33.125 75.55859375 C-41.56571164 70.36171943 -41.56571164 70.36171943 -44 66 C-44.46291734 62.79542264 -44.44409128 59.61237994 -44.43359375 56.37890625 C-44.4388356 55.44199448 -44.44407745 54.5050827 -44.44947815 53.53977966 C-44.45589529 51.56030263 -44.45456534 49.58078745 -44.44604492 47.60131836 C-44.4375397 44.57661836 -44.46629281 41.5538101 -44.49804688 38.52929688 C-44.49965915 36.60416723 -44.49908085 34.67903425 -44.49609375 32.75390625 C-44.50732773 31.85168839 -44.51856171 30.94947052 -44.53013611 30.01991272 C-44.48370463 25.82465583 -44.36479988 23.58403553 -42.09716797 19.95361328 C-39.9128496 17.91881519 -38.51796817 17.15821847 -35.6875 16.3125 C-30.02408782 14.27367161 -25.42144559 11.13940542 -20.5300293 7.7043457 C-7.56326381 -1.32592488 -7.56326381 -1.32592488 0 0 Z " fill="#77A570" transform="translate(302,207)"/>
<path d="M0 0 C2.73658192 2.48002737 2.97298654 3.53176671 3.1875 7.25 C3.0946875 8.61125 3.0946875 8.61125 3 10 C1.02 10 -0.96 10 -3 10 C-3.28875 9.195625 -3.5775 8.39125 -3.875 7.5625 C-4.73262568 4.8673532 -4.73262568 4.8673532 -7 4 C-8.9981051 3.90350061 -10.9995718 3.87019128 -13 3.875 C-14.0725 3.87242187 -15.145 3.86984375 -16.25 3.8671875 C-18.96182052 3.8127659 -18.96182052 3.8127659 -21 5 C-21 6.98 -21 8.96 -21 11 C-19.87464844 11.05607422 -19.87464844 11.05607422 -18.7265625 11.11328125 C-2.76172809 12.13873031 -2.76172809 12.13873031 2.74609375 16.328125 C4.78585413 19.0478055 4.53199601 21.48056598 4.4140625 24.77734375 C3.73335297 28.43134115 1.94820976 29.88497995 -1 32 C-7.83976052 34.70900627 -15.46973253 35.49158883 -22.55078125 33.16015625 C-25.61911254 31.49417016 -27.50537696 30.12907623 -28.92578125 26.88671875 C-29.5 24.6875 -29.5 24.6875 -30 21 C-27.69 21 -25.38 21 -23 21 C-22.71125 21.804375 -22.4225 22.60875 -22.125 23.4375 C-21.26737432 26.1326468 -21.26737432 26.1326468 -19 27 C-16.66906388 27.12283119 -14.33413961 27.17554232 -12 27.1875 C-10.741875 27.20167969 -9.48375 27.21585937 -8.1875 27.23046875 C-4.90645401 27.34263547 -4.90645401 27.34263547 -3 25 C-3 23.68 -3 22.36 -3 21 C-3.61746094 20.87882812 -4.23492187 20.75765625 -4.87109375 20.6328125 C-6.64665744 20.28148331 -8.42134779 19.92572205 -10.1953125 19.56640625 C-11.958983 19.21023324 -13.72442342 18.86260935 -15.4921875 18.52734375 C-19.85428223 17.65345608 -23.3660754 16.72544345 -27 14 C-28.73284129 10.53431742 -28.47120755 6.78929407 -28 3 C-26.3125 0 -26.3125 0 -24 -2 C-15.79365131 -4.16248378 -7.58548075 -3.79274038 0 0 Z " fill="#73A46D" transform="translate(321,237)"/>
<path d="M0 0 C0.66 0 1.32 0 2 0 C5.07741171 5.45944673 8.05938851 10.96607159 11 16.5 C13.24530436 20.72272394 15.49634516 24.9405269 17.8125 29.125 C18.19277344 29.81207031 18.57304687 30.49914062 18.96484375 31.20703125 C19.87281337 32.77970316 20.86768739 34.30153109 21.875 35.8125 C23 38 23 38 22.6875 40.3125 C22.460625 40.869375 22.23375 41.42625 22 42 C22 41.34 22 40.68 22 40 C20.948125 40.0825 19.89625 40.165 18.8125 40.25 C14.31026323 39.95477136 13.31516717 38.90077128 10 36 C7.70692913 34.85106093 5.39183733 33.93797542 3 33 C3 32.34 3 31.68 3 31 C2.44699219 30.88269531 1.89398438 30.76539063 1.32421875 30.64453125 C-1.3401857 29.90566279 -3.69211355 28.87806104 -6.1875 27.6875 C-7.06792969 27.27886719 -7.94835937 26.87023437 -8.85546875 26.44921875 C-11 25 -11 25 -11.91015625 23.078125 C-12.01998257 20.53779449 -11.46445905 19.28460804 -10.25 17.0625 C-9.87488281 16.36511719 -9.49976563 15.66773438 -9.11328125 14.94921875 C-7.77769544 12.61077202 -6.39440307 10.30379638 -5 8 C-3.9849911 6.00757511 -2.98126556 4.00925805 -2 2 C-1.34 2 -0.68 2 0 2 C0 1.34 0 0.68 0 0 Z " fill="#448940" transform="translate(227,168)"/>
<path d="M0 0 C2.421875 1.15625 2.421875 1.15625 4.75 2.5 C5.52859375 2.9434375 6.3071875 3.386875 7.109375 3.84375 C9 5 9 5 10 6 C10.07319621 8.69654854 10.09242537 11.36691458 10.0625 14.0625 C10.05798828 14.82111328 10.05347656 15.57972656 10.04882812 16.36132812 C10.0370068 18.24091871 10.01907078 20.12046899 10 22 C8.35 22.66 6.7 23.32 5 24 C5 24.66 5 25.32 5 26 C3.34302621 26.69040574 1.6744239 27.3530635 0 28 C-0.59941406 28.24621094 -1.19882812 28.49242187 -1.81640625 28.74609375 C-5.08288859 29.12591728 -6.88367183 27.7496481 -9.6875 26.125 C-10.66074219 25.57070312 -11.63398438 25.01640625 -12.63671875 24.4453125 C-15 23 -15 23 -16 22 C-16.66652177 16.54835495 -16.86624618 11.43569479 -16 6 C-13.44367551 2.88705647 -10.71279203 1.45428858 -7 0 C-4.26119423 -1.36940289 -2.92692262 -0.7873593 0 0 Z " fill="#DCF8DA" transform="translate(352,154)"/>
<path d="M0 0 C-0.23771118 0.9449231 -0.23771118 0.9449231 -0.48022461 1.90893555 C-1.18404584 6.09450649 -1.2350933 10.21917867 -1.31640625 14.45703125 C-1.33718735 15.35999435 -1.35796844 16.26295746 -1.37937927 17.19328308 C-1.4445528 20.06628097 -1.50360955 22.93936714 -1.5625 25.8125 C-1.60571586 27.76498294 -1.64933112 29.71745708 -1.69335938 31.66992188 C-1.80020107 36.44652503 -1.90155857 41.22321664 -2 46 C-1.0615625 46.29648437 -0.123125 46.59296875 0.84375 46.8984375 C4 48 4 48 6.5 49.625 C9.54357349 51.29896542 11.5760797 51.31126548 15 51 C17.15456969 48.84543031 16.26026626 43.9288373 16.31640625 40.93359375 C16.33718735 40.02497086 16.35796844 39.11634796 16.37937927 38.18019104 C16.44497672 35.26604054 16.5038068 32.35179696 16.5625 29.4375 C16.60567554 27.46678709 16.64928951 25.49608374 16.69335938 23.52539062 C16.80066843 18.68369012 16.90190675 13.84189563 17 9 C18.98 9 20.96 9 23 9 C23.0991017 15.01394883 23.17157916 21.02741915 23.21972656 27.04199219 C23.2398042 29.0866728 23.26707225 31.13129627 23.30175781 33.17578125 C23.35044519 36.11993537 23.37300744 39.06332834 23.390625 42.0078125 C23.41127014 42.9174173 23.43191528 43.82702209 23.45318604 44.76419067 C23.45518859 50.46739288 22.81793161 53.66894535 19 58 C13.78892327 59.64927094 8.70759235 58.81685815 3.83984375 56.48828125 C0.26826799 54.24369411 -3.01359827 51.98640173 -6 49 C-6.26742554 47.12272644 -6.26742554 47.12272644 -6.29052734 44.81323242 C-6.30328705 43.94860886 -6.31604675 43.08398529 -6.32919312 42.19316101 C-6.33141876 41.25672256 -6.33364441 40.32028412 -6.3359375 39.35546875 C-6.3425943 38.39353104 -6.3492511 37.43159332 -6.35610962 36.44050598 C-6.36624817 34.4020072 -6.37092627 32.36347514 -6.37060547 30.32495117 C-6.37496818 27.21021458 -6.41124625 24.09690657 -6.44921875 20.98242188 C-6.45508878 19.00260902 -6.45905693 17.02278942 -6.4609375 15.04296875 C-6.47530853 14.112603 -6.48967957 13.18223724 -6.50448608 12.22367859 C-6.47430925 7.937012 -6.36852134 5.60542792 -4.09619141 1.87231445 C-2 0 -2 0 0 0 Z " fill="#6DA064" transform="translate(265,226)"/>
<path d="M0 0 C1.010625 0.639375 2.02125 1.27875 3.0625 1.9375 C2.88829268 4.21120592 2.6719129 6.48171047 2.4375 8.75 C2.32148438 10.01457031 2.20546875 11.27914062 2.0859375 12.58203125 C1.0625 15.9375 1.0625 15.9375 -1.796875 17.78515625 C-2.83328125 18.16542969 -3.8696875 18.54570312 -4.9375 18.9375 C-6.13375 19.47375 -7.33 20.01 -8.5625 20.5625 C-9.67625 21.01625 -10.79 21.47 -11.9375 21.9375 C-12.989375 22.4015625 -12.989375 22.4015625 -14.0625 22.875 C-15.9375 22.9375 -15.9375 22.9375 -18.49609375 21.43359375 C-21.68322237 18.17507345 -21.89842645 15.4243065 -21.875 11.0625 C-21.87314697 10.34521729 -21.87129395 9.62793457 -21.86938477 8.88891602 C-21.67038953 5.34321979 -21.21599665 3.27419809 -18.9375 0.51953125 C-12.17771639 -3.81868354 -6.96704617 -3.85974358 0 0 Z " fill="#DAF4DB" transform="translate(453.9375,156.0625)"/>
<path d="M0 0 C0.66 0 1.32 0 2 0 C2.68835938 1.30324219 2.68835938 1.30324219 3.390625 2.6328125 C4.00421875 3.78523437 4.6178125 4.93765625 5.25 6.125 C5.85328125 7.26195312 6.4565625 8.39890625 7.078125 9.5703125 C8.94908435 13.03598885 8.94908435 13.03598885 11.25 16.25 C13 19 13 19 12.75 21.875 C12.37875 22.926875 12.37875 22.926875 12 24 C11.34 24 10.68 24 10 24 C9.82984375 24.59167969 9.6596875 25.18335938 9.484375 25.79296875 C7.97072848 30.72842257 6.35451657 34.01651158 3 38 C1.85942762 40.29564357 0.93738153 42.6096771 0 45 C-0.33 45 -0.66 45 -1 45 C-1.02499343 40.35929747 -1.04299677 35.71863539 -1.05493164 31.07788086 C-1.05991488 29.50398067 -1.0667039 27.930085 -1.07543945 26.35620117 C-1.12323532 17.51396518 -1.0673356 8.7949897 0 0 Z " fill="#559C49" transform="translate(215,146)"/>
<path d="M0 0 C7.18990033 3.43154334 7.18990033 3.43154334 10 6 C10.50120544 8.0489502 10.50120544 8.0489502 10.50170898 10.42382812 C10.51108994 11.31485229 10.52047089 12.20587646 10.53013611 13.12390137 C10.51890213 14.08332642 10.50766815 15.04275146 10.49609375 16.03125 C10.49754898 17.01871216 10.49900421 18.00617432 10.50050354 19.02355957 C10.49884332 21.11160227 10.48726834 23.19965706 10.46655273 25.28759766 C10.43761004 28.48783222 10.44593897 31.6864098 10.45898438 34.88671875 C10.45274677 36.91407057 10.44435566 38.94141715 10.43359375 40.96875 C10.43652939 41.92817505 10.43946503 42.8876001 10.44248962 43.87609863 C10.42980545 44.7671228 10.41712128 45.65814697 10.40405273 46.57617188 C10.39864975 47.35988159 10.39324677 48.14359131 10.38768005 48.9510498 C9.89925021 51.5324785 9.08098765 52.4352145 7 54 C4.3125 54.1875 4.3125 54.1875 2 54 C2.32368057 53.42790298 2.64736115 52.85580597 2.98085022 52.26637268 C4.05600071 49.87546631 4.26839932 48.33858601 4.30639648 45.73803711 C4.32238388 44.90715073 4.33837128 44.07626434 4.35484314 43.22019958 C4.36020584 42.33155716 4.36556854 41.44291473 4.37109375 40.52734375 C4.38012222 39.60788467 4.3891507 38.6884256 4.39845276 37.74110413 C4.4129411 35.80033622 4.42183847 33.85951963 4.42553711 31.91870117 C4.43747263 28.94432165 4.48670354 25.9719911 4.53710938 22.99804688 C4.54656934 21.11198929 4.55380642 19.22591898 4.55859375 17.33984375 C4.57812607 16.44917709 4.59765839 15.55851044 4.61778259 14.64085388 C4.60072945 12.3183631 4.55417055 10.25589291 4 8 C1.6387461 6.03183227 1.6387461 6.03183227 -1 5 C-1.33 4.01 -1.66 3.02 -2 2 C-1.34 2 -0.68 2 0 2 C0 1.34 0 0.68 0 0 Z " fill="#6F9F67" transform="translate(329,223)"/>
<path d="M0 0 C2.16796875 1.23046875 2.16796875 1.23046875 4 3 C4.390625 5.48046875 4.390625 5.48046875 4.25 8.1875 C4.21390625 9.08855469 4.1778125 9.98960937 4.140625 10.91796875 C4.07101562 11.94857422 4.07101562 11.94857422 4 13 C0.6828589 14.4216319 -2.44219804 15.39009109 -6 16 C-6 15.34 -6 14.68 -6 14 C-8.475 13.01 -8.475 13.01 -11 12 C-11.28529575 8.62083029 -11.42812006 5.37076806 -11 2 C-7.53638683 -1.56548414 -4.60023588 -1.37028303 0 0 Z " fill="#72A56C" transform="translate(450,160)"/>
<path d="M0 0 C1.051875 -0.00515625 2.10375 -0.0103125 3.1875 -0.015625 C6 0.25 6 0.25 9 2.25 C9.6875 4.875 9.6875 4.875 10 7.25 C12.475 7.745 12.475 7.745 15 8.25 C15.12375 8.889375 15.2475 9.52875 15.375 10.1875 C15.58125 10.868125 15.7875 11.54875 16 12.25 C16.66 12.58 17.32 12.91 18 13.25 C18 16.55 18 19.85 18 23.25 C17.67 23.25 17.34 23.25 17 23.25 C16.86979167 21.26432292 16.73958333 19.27864583 16.609375 17.29296875 C15.76939456 14.47688049 14.45022713 13.81712885 12 12.25 C9.70176459 11.49132944 9.70176459 11.49132944 7.234375 11.08203125 C6.34492188 10.91123047 5.45546875 10.74042969 4.5390625 10.56445312 C3.61867188 10.39880859 2.69828125 10.23316406 1.75 10.0625 C0.81414062 9.88525391 -0.12171875 9.70800781 -1.0859375 9.52539062 C-3.38900521 9.09062784 -5.69346019 8.66587612 -8 8.25 C-8.33 6.27 -8.66 4.29 -9 2.25 C-5.53767506 -0.05821663 -4.08201684 -0.02000989 0 0 Z " fill="#DBFAD8" transform="translate(308,239.75)"/>
<path d="M0 0 C2 3 2 3 1.625 5.1875 C1.41875 5.785625 1.2125 6.38375 1 7 C0.67 5.35 0.34 3.7 0 2 C-1.29633621 3.06645115 -1.29633621 3.06645115 -1.0625 5.5625 C-1.041875 6.366875 -1.02125 7.17125 -1 8 C-0.34 8 0.32 8 1 8 C0.34 9.32 -0.32 10.64 -1 12 C-4.53677664 12.32152515 -6.3962104 12.4131192 -9.375 10.375 C-11.47464453 7.30628876 -11.62060815 5.64607289 -11 2 C-7.82775887 -1.933579 -4.58022934 -1.18746687 0 0 Z " fill="#9FC29A" transform="translate(355,225)"/>
<path d="M0 0 C2.31 0 4.62 0 7 0 C7.28875 0.804375 7.5775 1.60875 7.875 2.4375 C8.73262568 5.1326468 8.73262568 5.1326468 11 6 C12.87056791 6.2275015 14.74685958 6.40962811 16.625 6.5625 C18.12933594 6.68818359 18.12933594 6.68818359 19.6640625 6.81640625 C20.43492187 6.87699219 21.20578125 6.93757813 22 7 C22 7.33 22 7.66 22 8 C19.03 8 16.06 8 13 8 C14.60480784 11.12606964 14.60480784 11.12606964 16.9453125 11.51171875 C18.02425781 11.59873047 18.02425781 11.59873047 19.125 11.6875 C20.40375 11.790625 21.6825 11.89375 23 12 C23 12.33 23 12.66 23 13 C9.33355287 13.93748494 9.33355287 13.93748494 3.45703125 9.64453125 C0.8597681 6.71303585 0.51873984 3.82570632 0 0 Z " fill="#7AA974" transform="translate(291,258)"/>
<path d="M0 0 C1.26810923 0.5480138 2.53906044 1.0894892 3.8125 1.625 C5.3903125 2.305625 5.3903125 2.305625 7 3 C4 5 4 5 1 6 C3.64 6.66 6.28 7.32 9 8 C8.67 8.66 8.34 9.32 8 10 C3.1519507 9.46860721 -0.19409239 8.04523649 -4.375 5.5625 C-5.43460937 4.94503906 -6.49421875 4.32757813 -7.5859375 3.69140625 C-8.38257813 3.13324219 -9.17921875 2.57507813 -10 2 C-10 1.34 -10 0.68 -10 0 C-5.82782812 -2.1456884 -4.15760869 -2.07880434 0 0 Z " fill="#7EAB79" transform="translate(293,288)"/>
<path d="M0 0 C0.66 0.33 1.32 0.66 2 1 C-0.91203228 4.1043363 -3.92196398 6.44983398 -7.5 8.75 C-8.4384375 9.36359375 -9.376875 9.9771875 -10.34375 10.609375 C-13 12 -13 12 -17 12 C-17 12.66 -17 13.32 -17 14 C-18.65 14.33 -20.3 14.66 -22 15 C-22 14.34 -22 13.68 -22 13 C-17.61538462 10 -17.61538462 10 -15 10 C-15 9.34 -15 8.68 -15 8 C-12.54665445 6.63603538 -10.08808766 5.28365831 -7.625 3.9375 C-6.92632812 3.54755859 -6.22765625 3.15761719 -5.5078125 2.75585938 C-3.70389816 1.77584822 -1.85416518 0.88124929 0 0 Z " fill="#85C06D" transform="translate(235,131)"/>
<path d="M0 0 C0.33 0 0.66 0 1 0 C1.02578125 0.62648437 1.0515625 1.25296875 1.078125 1.8984375 C1.13484375 2.71570313 1.1915625 3.53296875 1.25 4.375 C1.29640625 5.18710938 1.3428125 5.99921875 1.390625 6.8359375 C1.7922092 9.18838927 1.7922092 9.18838927 4.046875 10.2890625 C4.69140625 10.52367187 5.3359375 10.75828125 6 11 C5.67 12.32 5.34 13.64 5 15 C2.75 15.75 2.75 15.75 0 16 C-2.3125 14.0625 -2.3125 14.0625 -4 12 C-3.34 10.35 -2.68 8.7 -2 7 C-1.34 7 -0.68 7 0 7 C0 4.69 0 2.38 0 0 Z " fill="#CCEDCA" transform="translate(438,163)"/>
<path d="M0 0 C0.66 0.33 1.32 0.66 2 1 C1.02885254 1.93815552 1.02885254 1.93815552 0.03808594 2.89526367 C-2.77918219 7.18697411 -2.60245331 10.64555806 -2.609375 15.67578125 C-2.62591125 16.6009404 -2.64244751 17.52609955 -2.65948486 18.47929382 C-2.70792996 21.42376365 -2.72932811 24.36771713 -2.75 27.3125 C-2.77816259 29.31317697 -2.80809042 31.31382992 -2.83984375 33.31445312 C-2.9136881 38.20959291 -2.96328414 43.10444663 -3 48 C-3.33 48 -3.66 48 -4 48 C-4.09899561 41.96774061 -4.17152907 35.93595573 -4.21972656 29.90307617 C-4.23982199 27.85156007 -4.26710324 25.80010111 -4.30175781 23.7487793 C-4.35036669 20.79721975 -4.37298952 17.84641852 -4.390625 14.89453125 C-4.41127014 13.97976517 -4.43191528 13.06499908 -4.45318604 12.12251282 C-4.45471208 7.7760024 -4.39849227 5.61383764 -1.97558594 1.8815918 C-0.9976709 0.95020386 -0.9976709 0.95020386 0 0 Z " fill="#8DB587" transform="translate(262,225)"/>
<path d="M0 0 C0.33 0 0.66 0 1 0 C1 2.31 1 4.62 1 7 C1.66 7 2.32 7 3 7 C3 5.02 3 3.04 3 1 C3.66 1.99 4.32 2.98 5 4 C5.66 3.01 6.32 2.02 7 1 C7 2.65 7 4.3 7 6 C7.66 6 8.32 6 9 6 C8.34 7.32 7.68 8.64 7 10 C1.25 10.125 1.25 10.125 -1 9 C-1.09765625 2.84765625 -1.09765625 2.84765625 -1 1 C-0.67 0.67 -0.34 0.34 0 0 Z " fill="#BDE1B7" transform="translate(347,227)"/>
<path d="M0 0 C2.64 1.32 5.28 2.64 8 4 C7.34 8.62 6.68 13.24 6 18 C5.67 18 5.34 18 5 18 C5.020625 17.39671875 5.04125 16.7934375 5.0625 16.171875 C4.9953631 13.57031996 4.82257933 11.47626214 4 9 C1.54762069 7.02461625 -1.02049588 5.97054462 -4 5 C-3.38125 4.87625 -2.7625 4.7525 -2.125 4.625 C0.19120832 4.12802644 0.19120832 4.12802644 2 2 C1.34 2 0.68 2 0 2 C0 1.34 0 0.68 0 0 Z " fill="#D0F2CD" transform="translate(449,154)"/>
<path d="M0 0 C0.66 0 1.32 0 2 0 C1.67 14.85 1.34 29.7 1 45 C0.67 45 0.34 45 0 45 C-0.16784025 38.75220534 -0.32780106 32.50424527 -0.48217773 26.25610352 C-0.53568206 24.12877795 -0.59101764 22.00149764 -0.64819336 19.87426758 C-0.72986981 16.8238298 -0.80504681 13.77329203 -0.87890625 10.72265625 C-0.90594131 9.76537125 -0.93297638 8.80808624 -0.96083069 7.8217926 C-0.98092697 6.94095505 -1.00102325 6.06011749 -1.02172852 5.15258789 C-1.04171402 4.37315323 -1.06169952 3.59371857 -1.08229065 2.79066467 C-1 1 -1 1 0 0 Z " fill="#D4F8CE" transform="translate(257,228)"/>
<path d="M0 0 C0.99 0.33 1.98 0.66 3 1 C3.3721042 2.32303717 3.70630173 3.65737935 4 5 C4.66 5.33 5.32 5.66 6 6 C6 9.3 6 12.6 6 16 C5.67 16 5.34 16 5 16 C4.86979167 14.01432292 4.73958333 12.02864583 4.609375 10.04296875 C3.74348256 7.14000883 2.63492615 6.47145227 0 5 C-3.48883619 3.99383384 -3.48883619 3.99383384 -7.25 3.3125 C-8.51328125 3.06113281 -9.7765625 2.80976563 -11.078125 2.55078125 C-12.04234375 2.36902344 -13.0065625 2.18726563 -14 2 C-14 1.67 -14 1.34 -14 1 C-13.07316406 1.01160156 -12.14632813 1.02320313 -11.19140625 1.03515625 C-9.39509766 1.04869141 -9.39509766 1.04869141 -7.5625 1.0625 C-5.77005859 1.07990234 -5.77005859 1.07990234 -3.94140625 1.09765625 C-1.11126659 1.33901792 -1.11126659 1.33901792 0 0 Z " fill="#BEE6B9" transform="translate(320,247)"/>
<path d="M0 0 C0.66 0 1.32 0 2 0 C2 8.25 2 16.5 2 25 C1.01 24.67 0.02 24.34 -1 24 C-1 23.01 -1 22.02 -1 21 C-0.34 21 0.32 21 1 21 C0.75443359 19.96746094 0.75443359 19.96746094 0.50390625 18.9140625 C-0.05592699 15.67657726 -0.09647152 12.65891372 -0.0625 9.375 C-0.05347656 8.24835938 -0.04445313 7.12171875 -0.03515625 5.9609375 C-0.02355469 4.98382813 -0.01195312 4.00671875 0 3 C0 2.01 0 1.02 0 0 Z " fill="#50924E" transform="translate(290,145)"/>
<path d="M0 0 C2.00720923 0.28674418 4.0085944 0.61866701 6 1 C6 1.33 6 1.66 6 2 C5.05125 2.28875 4.1025 2.5775 3.125 2.875 C-0.05211578 3.76825109 -0.05211578 3.76825109 -2 6 C-8.77393617 9.38696809 -8.77393617 9.38696809 -13 8 C-12.14535156 7.50628906 -11.29070312 7.01257813 -10.41015625 6.50390625 C-9.30542969 5.86324219 -8.20070312 5.22257812 -7.0625 4.5625 C-5.96035156 3.92441406 -4.85820312 3.28632812 -3.72265625 2.62890625 C-1.1716429 1.25289773 -1.1716429 1.25289773 0 0 Z " fill="#8EBA7E" transform="translate(250,122)"/>
<path d="M0 0 C0.33 0 0.66 0 1 0 C1.33 2.64 1.66 5.28 2 8 C3.65 8 5.3 8 7 8 C6.67 9.32 6.34 10.64 6 12 C4.34385343 12.38218767 2.67542976 12.71395102 1 13 C0 12 0 12 -0.09765625 9.27734375 C-0.08605469 8.17519531 -0.07445312 7.07304687 -0.0625 5.9375 C-0.05347656 4.83277344 -0.04445313 3.72804687 -0.03515625 2.58984375 C-0.02355469 1.73519531 -0.01195312 0.88054687 0 0 Z " fill="#495247" transform="translate(459,160)"/>
<path d="M0 0 C1.39195915 4.17587745 -0.17676781 6.13474776 -2 10 C-2.99 10 -3.98 10 -5 10 C-5.33 9.34 -5.66 8.68 -6 8 C-7.98 8.33 -9.96 8.66 -12 9 C-12 8.01 -12 7.02 -12 6 C-11.38511719 5.98582031 -10.77023437 5.97164063 -10.13671875 5.95703125 C-7.66500527 5.81117256 -5.40322852 5.60506817 -3 5 C-0.8613923 2.61012067 -0.8613923 2.61012067 0 0 Z " fill="#D4F4CF" transform="translate(287,278)"/>
<path d="M0 0 C3.3 0 6.6 0 10 0 C9.67 1.32 9.34 2.64 9 4 C6.69 4 4.38 4 2 4 C1.34 2.68 0.68 1.36 0 0 Z " fill="#669D61" transform="translate(304,266)"/>
<path d="M0 0 C2.31 0 4.62 0 7 0 C7 1.65 7 3.3 7 5 C3.25 6.125 3.25 6.125 1 5 C0.375 2.4375 0.375 2.4375 0 0 Z " fill="#72A06D" transform="translate(291,258)"/>
<path d="M0 0 C0 0.66 0 1.32 0 2 C0.66 2.33 1.32 2.66 2 3 C1.34 3 0.68 3 0 3 C0 3.66 0 4.32 0 5 C-5.53846154 5.36923077 -5.53846154 5.36923077 -7.875 3.5 C-8.24625 3.005 -8.6175 2.51 -9 2 C-2.25 0 -2.25 0 0 0 Z " fill="#6A9D64" transform="translate(302,291)"/>
<path d="M0 0 C0.53625 0.2475 1.0725 0.495 1.625 0.75 C0.635 1.41 -0.355 2.07 -1.375 2.75 C-1.045 3.41 -0.715 4.07 -0.375 4.75 C-3.375 6.75 -3.375 6.75 -6.0625 6.375 C-6.825625 6.16875 -7.58875 5.9625 -8.375 5.75 C-8.375 5.09 -8.375 4.43 -8.375 3.75 C-3.23290173 -0.34030544 -3.23290173 -0.34030544 0 0 Z " fill="#6E9A65" transform="translate(278.375,218.25)"/>
<path d="M0 0 C1.0725 -0.01417969 2.145 -0.02835938 3.25 -0.04296875 C6 0.1875 6 0.1875 8 2.1875 C7.01 2.5175 6.02 2.8475 5 3.1875 C4.67 2.8575 4.34 2.5275 4 2.1875 C-2.34761111 1.79232256 -2.34761111 1.79232256 -7.6875 4.75 C-8.120625 5.224375 -8.55375 5.69875 -9 6.1875 C-8.625 3.75 -8.625 3.75 -8 1.1875 C-5.27457733 -0.17521133 -3.03912726 0.01826399 0 0 Z " fill="#CCF2C7" transform="translate(308,239.8125)"/>
<path d="M0 0 C0 0.66 0 1.32 0 2 C0.66 2 1.32 2 2 2 C1.67 2.99 1.34 3.98 1 5 C-1.97 4.67 -4.94 4.34 -8 4 C-7.67 3.01 -7.34 2.02 -7 1 C-4.52260646 0.09162237 -2.66420516 0 0 0 Z " fill="#E3FBE1" transform="translate(449,154)"/>
<path d="M0 0 C-1.3125 1.5 -1.3125 1.5 -3 3 C-3.99 3 -4.98 3 -6 3 C-6.99 4.485 -6.99 4.485 -8 6 C-10.625 6.1875 -10.625 6.1875 -13 6 C-9.24201894 1.84644198 -5.71575712 -0.48992204 0 0 Z " fill="#BFD6BF" transform="translate(448,153)"/>
<path d="M0 0 C-0.66 1.65 -1.32 3.3 -2 5 C-2.721875 4.938125 -3.44375 4.87625 -4.1875 4.8125 C-7.52859947 5.03523996 -9.19685279 6.25750308 -12 8 C-12.66 7.67 -13.32 7.34 -14 7 C-12.04480616 5.82807953 -10.0857461 4.6626071 -8.125 3.5 C-7.03445312 2.8503125 -5.94390625 2.200625 -4.8203125 1.53125 C-2 0 -2 0 0 0 Z " fill="#576556" transform="translate(132,135)"/>
<path d="M0 0 C0.33 0 0.66 0 1 0 C1 4.62 1 9.24 1 14 C-0.32 13.67 -1.64 13.34 -3 13 C-2.125 9.125 -2.125 9.125 -1 8 C-0.76924918 6.65252916 -0.58846937 5.29622435 -0.4375 3.9375 C-0.2209375 1.9884375 -0.2209375 1.9884375 0 0 Z " fill="#DCF1DA" transform="translate(361,115)"/>
<path d="M0 0 C0.66 0 1.32 0 2 0 C2.33 0.99 2.66 1.98 3 3 C3.66 3.33 4.32 3.66 5 4 C5 4.99 5 5.98 5 7 C-0.75 5.375 -0.75 5.375 -3 2 C-2.01 2 -1.02 2 0 2 C0 1.34 0 0.68 0 0 Z " fill="#4E5649" transform="translate(173,188)"/>
<path d="M0 0 C0.66 0 1.32 0 2 0 C2 0.99 2 1.98 2 3 C1.01 3 0.02 3 -1 3 C-0.67 3.99 -0.34 4.98 0 6 C-0.08573227 8.06587115 -0.23833535 10.12946525 -0.4375 12.1875 C-0.53933594 13.27417969 -0.64117187 14.36085937 -0.74609375 15.48046875 C-0.82988281 16.31191406 -0.91367187 17.14335937 -1 18 C-1.33 18 -1.66 18 -2 18 C-2.05382106 15.37472811 -2.09358313 12.75055287 -2.125 10.125 C-2.14175781 9.37863281 -2.15851563 8.63226563 -2.17578125 7.86328125 C-2.1933959 5.90805539 -2.10320189 3.95257979 -2 2 C-1.34 1.34 -0.68 0.68 0 0 Z " fill="#C9DDC7" transform="translate(338,158)"/>
<path d="M0 0 C1.98 0.99 3.96 1.98 6 3 C5.01 3.495 5.01 3.495 4 4 C3.67 4.99 3.34 5.98 3 7 C0.69 6.34 -1.62 5.68 -4 5 C-3.38125 4.87625 -2.7625 4.7525 -2.125 4.625 C0.19120832 4.12802644 0.19120832 4.12802644 2 2 C1.34 2 0.68 2 0 2 C0 1.34 0 0.68 0 0 Z " fill="#CBE8C9" transform="translate(449,154)"/>
<path d="M0 0 C-0.928125 0.4021875 -0.928125 0.4021875 -1.875 0.8125 C-4.2995233 1.95556848 -4.2995233 1.95556848 -6 5 C-9.125 5.1875 -9.125 5.1875 -12 5 C-8.12259529 0.85518807 -5.65610938 -0.15286782 0 0 Z " fill="#586757" transform="translate(352,123)"/>
<path d="M0 0 C1.98 0.99 3.96 1.98 6 3 C4.35 4.65 2.7 6.3 1 8 C0.01 7.01 -0.98 6.02 -2 5 C-1.01 4.34 -0.02 3.68 1 3 C0.67 2.01 0.34 1.02 0 0 Z " fill="#79A876" transform="translate(266,273)"/>
<path d="M0 0 C2.31 0 4.62 0 7 0 C7.33 1.32 7.66 2.64 8 4 C4.31245243 3.50168276 2.39509338 2.89932357 0 0 Z " fill="#639560" transform="translate(244,208)"/>
<path d="M0 0 C4.16138263 -0.08159574 7.9472484 0.01751476 12 1 C12 1.33 12 1.66 12 2 C9.98177083 1.96744792 7.96354167 1.93489583 5.9453125 1.90234375 C3.91814596 1.87350758 3.91814596 1.87350758 2 3 C1.34 2.67 0.68 2.34 0 2 C0 1.34 0 0.68 0 0 Z " fill="#71A16B" transform="translate(305,249)"/>
<path d="M0 0 C-5.2734375 3.22265625 -5.2734375 3.22265625 -7 4 C-7.66 3.67 -8.32 3.34 -9 3 C-9 2.01 -9 1.02 -9 0 C-2.25 -1.125 -2.25 -1.125 0 0 Z " fill="#B9E3B1" transform="translate(273,221)"/>
<path d="M0 0 C2.31 0 4.62 0 7 0 C5.1875 2 5.1875 2 3 4 C2.01 4 1.02 4 0 4 C0 2.68 0 1.36 0 0 Z " fill="#4C8948" transform="translate(280,192)"/>
<path d="M0 0 C-0.33 0.99 -0.66 1.98 -1 3 C-2.98 3.33 -4.96 3.66 -7 4 C-6.67 3.01 -6.34 2.02 -6 1 C-3 0 -3 0 0 0 Z " fill="#609558" transform="translate(279,196)"/>
<path d="M0 0 C1.2065625 0.0309375 1.2065625 0.0309375 2.4375 0.0625 C0.30969421 2.40308637 -1.67812221 3.76950306 -4.5625 5.0625 C-3.43829114 0.08386076 -3.43829114 0.08386076 0 0 Z " fill="#D5FBD2" transform="translate(442.5625,157.9375)"/>
<path d="M0 0 C5.75 1.625 5.75 1.625 8 5 C5.36 4.34 2.72 3.68 0 3 C0 2.01 0 1.02 0 0 Z " fill="#7BAC78" transform="translate(276,136)"/>
</svg>
